<svg width="47" height="47" viewBox="0 0 47 47" fill="none" xmlns="http://www.w3.org/2000/svg">
<path d="M40.375 36H43.5C44.8807 36 46 34.8807 46 33.5V13.5C46 12.1193 44.8807 11 43.5 11H3.5C2.1193 11 1 12.1193 1 13.5V33.5C1 34.8807 2.1193 36 3.5 36H6.625" stroke="black" stroke-width="2" stroke-linecap="round" stroke-linejoin="round"/>
<path d="M15 34H32" stroke="black" stroke-width="2" stroke-linecap="round" stroke-linejoin="round"/>
<path d="M9 23.5C9 22.1193 10.082 21 11.4167 21H35.5833C36.9181 21 38 22.1193 38 23.5V43.5C38 44.8807 36.9181 46 35.5833 46H11.4167C10.082 46 9 44.8807 9 43.5V23.5Z" stroke="black" stroke-width="2" stroke-linecap="round" stroke-linejoin="round"/>
<path d="M9 3.5C9 2.1193 10.082 1 11.4167 1H35.5833C36.9181 1 38 2.1193 38 3.5V11H9V3.5Z" stroke="black" stroke-width="2" stroke-linecap="round" stroke-linejoin="round"/>
<path d="M15 27H32" stroke="black" stroke-width="2" stroke-linecap="round" stroke-linejoin="round"/>
<path d="M15 40H32" stroke="black" stroke-width="2" stroke-linecap="round" stroke-linejoin="round"/>
</svg>
