<svg width="47" height="60" viewBox="0 0 47 60" fill="none" xmlns="http://www.w3.org/2000/svg">
<path d="M2.35 0C1.72674 0 1.12901 0.225765 0.688299 0.627628C0.247589 1.02949 0 1.57454 0 2.14286V57.8571C0 58.4255 0.247589 58.9705 0.688299 59.3724C1.12901 59.7742 1.72674 60 2.35 60H16.45V55.7143H4.7V4.28571H42.3V25.7143H47V2.14286C47 1.57454 46.7524 1.02949 46.3117 0.627628C45.871 0.225765 45.2733 0 44.65 0H2.35Z" fill="black"/>
<path d="M10 15.6667H37V12H10V15.6667ZM10 23H28V19.3333H10V23Z" fill="black"/>
<path fill-rule="evenodd" clip-rule="evenodd" d="M30.5 29C26.1239 29 21.9271 30.3696 18.8327 32.8076C15.7384 35.2456 14 38.5522 14 42C14 45.4478 15.7384 48.7544 18.8327 51.1924C21.9271 53.6304 26.1239 55 30.5 55C34.8761 55 39.0729 53.6304 42.1673 51.1924C45.2616 48.7544 47 45.4478 47 42C47 38.5522 45.2616 35.2456 42.1673 32.8076C39.0729 30.3696 34.8761 29 30.5 29ZM28.1429 34.5714V42C28.1423 42.244 28.2028 42.4858 28.3209 42.7114C28.439 42.937 28.6124 43.1421 28.8311 43.3149L35.9026 48.8863L39.2403 46.2566L32.8571 41.2311V34.5714H28.1429Z" fill="#EA6900"/>
</svg>
