<svg width="61" height="61" viewBox="0 0 61 61" fill="none" xmlns="http://www.w3.org/2000/svg">
<circle cx="30.5" cy="30.5" r="30.5" fill="#CECECE"/>
<path d="M54.2933 11.293H6.64702C5.18511 11.293 4 12.4781 4 13.94V48.3512C4 49.8131 5.18511 50.9982 6.64702 50.9982H54.2933C55.7552 50.9982 56.9403 49.8131 56.9403 48.3512V13.94C56.9403 12.4781 55.7552 11.293 54.2933 11.293Z" fill="#CECECE" stroke="url(#paint0_linear_1748_74)" stroke-width="4" stroke-linecap="round" stroke-linejoin="round"/>
<path d="M17.2354 6V16.5881ZM28.7363 36.3587H19.46H10.4648M43.7055 6V16.5881Z" fill="#CECECE"/>
<path d="M17.2354 6V16.5881M10.4648 27.6446H19.46H24.2387M28.7363 36.3587H19.46H10.4648M43.7055 6V16.5881M26.7686 31.8611H10.4648" stroke="#EA6900" stroke-width="4" stroke-linecap="round"/>
<path d="M36.9286 32.9266C37.5598 32.9265 38.1717 33.1681 38.6606 33.6106C39.1496 34.053 39.4857 34.6692 39.6119 35.3548H47.3333V23.2141H35.2857C34.7048 23.2141 34.1476 23.4699 33.7368 23.9253C33.326 24.3806 33.0952 24.9982 33.0952 25.6422V35.3548H34.2452C34.3715 34.6692 34.7075 34.053 35.1965 33.6106C35.6855 33.1681 36.2974 32.9265 36.9286 32.9266ZM36.9286 38.997C36.2974 38.9971 35.6855 38.7555 35.1965 38.313C34.7075 37.8705 34.3715 37.2544 34.2452 36.5688H32V25.6422C32 24.6762 32.3462 23.7498 32.9624 23.0668C33.5786 22.3837 34.4143 22 35.2857 22H47.3333C47.6238 22 47.9024 22.1279 48.1078 22.3556C48.3132 22.5833 48.4286 22.8921 48.4286 23.2141V25.6422H51.7143L55 30.4985V36.5688H52.7548C52.6291 37.2549 52.2933 37.8718 51.8042 38.3149C51.3152 38.758 50.703 39 50.0714 39C49.4398 39 48.8277 38.758 48.3386 38.3149C47.8496 37.8718 47.5138 37.2549 47.3881 36.5688H39.6119C39.4857 37.2544 39.1496 37.8705 38.6606 38.313C38.1717 38.7555 37.5598 38.9971 36.9286 38.997ZM36.9286 34.1407C36.4929 34.1407 36.075 34.3325 35.7669 34.6741C35.4588 35.0156 35.2857 35.4788 35.2857 35.9618C35.2857 36.4448 35.4588 36.908 35.7669 37.2495C36.075 37.591 36.4929 37.7829 36.9286 37.7829C37.3643 37.7829 37.7822 37.591 38.0902 37.2495C38.3983 36.908 38.5714 36.4448 38.5714 35.9618C38.5714 35.4788 38.3983 35.0156 38.0902 34.6741C37.7822 34.3325 37.3643 34.1407 36.9286 34.1407ZM50.0714 32.9266C50.7026 32.9265 51.3145 33.1681 51.8035 33.6106C52.2925 34.053 52.6285 34.6692 52.7548 35.3548H53.9048V30.887L53.6419 30.4985H48.4286V33.5336C48.8886 33.1573 49.4581 32.9266 50.0714 32.9266ZM50.0714 34.1407C49.6357 34.1407 49.2178 34.3325 48.9098 34.6741C48.6017 35.0156 48.4286 35.4788 48.4286 35.9618C48.4286 36.4448 48.6017 36.908 48.9098 37.2495C49.2178 37.591 49.6357 37.7829 50.0714 37.7829C50.5071 37.7829 50.925 37.591 51.2331 37.2495C51.5412 36.908 51.7143 36.4448 51.7143 35.9618C51.7143 35.4788 51.5412 35.0156 51.2331 34.6741C50.925 34.3325 50.5071 34.1407 50.0714 34.1407ZM48.4286 26.8563V29.2844H52.8095L51.1667 26.8563H48.4286Z" fill="black"/>
<path d="M40.85 28.36V27.1C40.85 27.0008 40.8164 26.9178 40.7492 26.8508C40.682 26.7838 40.5989 26.7502 40.5 26.75C40.4011 26.7498 40.318 26.7834 40.2508 26.8508C40.1836 26.9182 40.15 27.0013 40.15 27.1V28.4912C40.15 28.5379 40.1587 28.5832 40.1762 28.627C40.1937 28.6709 40.22 28.7102 40.255 28.745L41.41 29.9C41.4742 29.9642 41.5558 29.9962 41.655 29.9962C41.7542 29.9962 41.8358 29.9642 41.9 29.9C41.9642 29.8358 41.9962 29.7542 41.9962 29.655C41.9962 29.5558 41.9642 29.4742 41.9 29.41L40.85 28.36ZM40.5 32C40.0158 32 39.5608 31.9081 39.135 31.7242C38.7092 31.5403 38.3387 31.291 38.0237 30.9762C37.7087 30.6615 37.4594 30.2911 37.2758 29.865C37.0922 29.4389 37.0002 28.9839 37 28.5C36.9998 28.0161 37.0917 27.5611 37.2758 27.135C37.4599 26.7089 37.7092 26.3385 38.0237 26.0237C38.3383 25.709 38.7087 25.4597 39.135 25.2758C39.5613 25.0919 40.0163 25 40.5 25C40.9837 25 41.4387 25.0919 41.865 25.2758C42.2913 25.4597 42.6617 25.709 42.9762 26.0237C43.2908 26.3385 43.5402 26.7089 43.7245 27.135C43.9089 27.5611 44.0007 28.0161 44 28.5C43.9993 28.9839 43.9074 29.4389 43.7242 29.865C43.541 30.2911 43.2917 30.6615 42.9762 30.9762C42.6608 31.291 42.2904 31.5404 41.865 31.7245C41.4396 31.9086 40.9846 32.0005 40.5 32Z" fill="#EA6900"/>
<defs>
<linearGradient id="paint0_linear_1748_74" x1="32.1099" y1="52.9417" x2="32.1099" y2="8.247" gradientUnits="userSpaceOnUse">
<stop stop-color="#EA6900"/>
<stop offset="0.20617" stop-color="#C2B5A9"/>
<stop offset="0.572566"/>
</linearGradient>
</defs>
</svg>
