<svg width="36" height="48" viewBox="0 0 36 48" fill="none" xmlns="http://www.w3.org/2000/svg">
<path d="M30 0H2C1.46957 0 0.96086 0.168571 0.585787 0.468629C0.210714 0.768687 0 1.17565 0 1.6V46.4C0 46.8243 0.210714 47.2313 0.585787 47.5314C0.96086 47.8314 1.46957 48 2 48H34C34.5304 48 35.0391 47.8314 35.4142 47.5314C35.7893 47.2313 36 46.8243 36 46.4V9.6L30 0Z" fill="#FF6A00"/>
<path d="M2 16L2 38H3L3 16H2Z" fill="white"/>
<path d="M26 41H6V42H26V41Z" fill="white"/>
<path d="M10 14H20V10L26 15L20 20V16H10V14Z" fill="white"/>
<path d="M26 7H16V11L10 6L16 1V5H26V7Z" fill="white"/>
<path d="M22 37C26.4183 37 30 33.4183 30 29C30 24.5817 26.4183 21 22 21C17.5817 21 14 24.5817 14 29C14 33.4183 17.5817 37 22 37Z" fill="#B3B3B3"/>
<path d="M22 35C25.3137 35 28 32.3137 28 29C28 25.6863 25.3137 23 22 23C18.6863 23 16 25.6863 16 29C16 32.3137 18.6863 35 22 35Z" fill="#D9D9D9"/>
<path d="M27 34L33 40" stroke="#B3B3B3" stroke-width="2" stroke-linecap="round"/>
</svg>
