<svg width="76" height="76" viewBox="0 0 76 76" fill="none" xmlns="http://www.w3.org/2000/svg">
<rect x="0.5" y="0.5" width="75" height="75" rx="7.5" stroke="white"/>
<path d="M14.0312 16.6294H32.4466M32.4466 16.6294C32.4466 20.0017 35.1948 22.7354 38.5851 22.7354C41.9754 22.7354 44.7236 20.0017 44.7236 16.6294M32.4466 16.6294C32.4466 13.2572 35.1948 10.5234 38.5851 10.5234C41.9754 10.5234 44.7236 13.2572 44.7236 16.6294M44.7236 16.6294H63.1389M14.0312 38.0004H50.862M50.862 38.0004C50.862 41.3727 53.6102 44.1063 57.0005 44.1063C60.3908 44.1063 63.1389 41.3727 63.1389 38.0004C63.1389 34.628 60.3908 31.8944 57.0005 31.8944C53.6102 31.8944 50.862 34.628 50.862 38.0004ZM26.3082 59.3713H63.1389M26.3082 59.3713C26.3082 55.999 23.5599 53.2653 20.1697 53.2653C16.7795 53.2653 14.0312 55.999 14.0312 59.3713C14.0312 62.7436 16.7795 65.4773 20.1697 65.4773C23.5599 65.4773 26.3082 62.7436 26.3082 59.3713Z" stroke="white" stroke-width="2" stroke-linecap="round"/>
</svg>
