<svg width="1202" height="446" viewBox="0 0 1202 446" fill="none" xmlns="http://www.w3.org/2000/svg">
<path d="M100.071 6H1189V355.169L1127.15 442H0C67.2231 287.737 105.203 53.572 100.071 6Z" fill="#F5F5F5"/>
<rect x="356.996" y="217" width="65" height="5" fill="#828282"/>
<rect x="151.496" y="13" width="332" height="22" fill="#D9D9D9"/>
<rect x="521" y="13" width="313" height="22" fill="#D9D9D9"/>
<rect x="856" y="13" width="305" height="22" fill="#D9D9D9"/>
<rect x="856" y="49" width="305" height="22" fill="#D9D9D9"/>
<rect x="521" y="49" width="313" height="22" fill="#D9D9D9"/>
<rect x="856.496" y="85" width="305" height="22" fill="#D9D9D9"/>
<rect x="521" y="85" width="313" height="22" fill="#D9D9D9"/>
<rect x="151.496" y="85" width="332" height="22" fill="#D9D9D9"/>
<rect x="151.496" y="121" width="332" height="22" fill="#D9D9D9"/>
<rect x="161" y="269" width="231" height="22" fill="#D9D9D9"/>
<rect x="421.496" y="242" width="22" height="71" fill="#D9D9D9"/>
<rect x="443.496" y="326" width="24" height="27" fill="#D9D9D9"/>
<rect x="455.496" y="217" width="24" height="19" fill="#D9D9D9"/>
<rect x="106.496" y="336" width="36" height="28" fill="#D9D9D9"/>
<rect x="106.496" y="371" width="36" height="26" fill="#D9D9D9"/>
<rect x="106.496" y="407" width="36" height="26" fill="#D9D9D9"/>
<rect x="450.496" y="267" width="26" height="17" fill="#D9D9D9"/>
<rect x="381.496" y="217" width="41" height="19" fill="#D9D9D9"/>
<rect x="161" y="305" width="231" height="22" fill="#D9D9D9"/>
<rect x="161" y="341" width="231" height="22" fill="#D9D9D9"/>
<rect x="161.496" y="377" width="231" height="22" fill="#D9D9D9"/>
<rect x="161" y="413" width="231" height="22" fill="#D9D9D9"/>
<rect x="151" y="49" width="333" height="22" fill="#D9D9D9"/>
<rect x="856.496" y="121" width="305" height="22" fill="#D9D9D9"/>
<rect x="521" y="121" width="313" height="22" fill="#D9D9D9"/>
<rect x="856.496" y="157" width="305" height="22" fill="#D9D9D9"/>
<rect x="521" y="157" width="313" height="22" fill="#D9D9D9"/>
<rect x="856.496" y="243" width="305" height="22" fill="#D9D9D9"/>
<rect x="856.496" y="279" width="305" height="22" fill="#D9D9D9"/>
<path d="M856.496 310H1161.5L1109.5 398H856.496V310Z" fill="#C6F6C6"/>
<path d="M985.496 413H1071.5V430.5H1018.5L1010.5 442H985.496V413Z" fill="#FF4B4B"/>
<rect x="521" y="278" width="314" height="22" fill="#D9D9D9"/>
<rect x="521" y="309" width="314" height="22" fill="#D9D9D9"/>
<rect x="521" y="345" width="314" height="22" fill="#D9D9D9"/>
<rect x="521" y="381" width="314" height="22" fill="#D9D9D9"/>
<rect x="521" y="413" width="314" height="22" fill="#D9D9D9"/>
<rect x="521" y="242" width="314" height="22" fill="#D9D9D9"/>
<rect x="521" y="207" width="314" height="22" fill="#D9D9D9"/>
<rect x="856.496" y="207" width="305" height="22" fill="#D9D9D9"/>
<rect x="156.496" y="156" width="102" height="22" fill="#00CB25"/>
<path d="M124.997 77H138.699L135.699 143.054H127.699H115.699L124.997 77Z" fill="#5B50FF"/>
<path d="M178.496 217H356.496L315.996 239H221.996L178.496 217Z" fill="#FFEA00"/>
<rect x="264.496" y="156" width="215" height="22" fill="#00F02C"/>
<rect x="264.496" y="178" width="25" height="15" fill="#D9D9D9"/>
<rect x="312.496" y="178" width="25" height="15" fill="#D9D9D9"/>
<rect x="359.496" y="178" width="14" height="15" fill="#D9D9D9"/>
<rect x="404.496" y="178" width="14" height="15" fill="#D9D9D9"/>
<rect x="441.496" y="178" width="26" height="15" fill="#D9D9D9"/>
<path d="M311.303 23.0957H312.146C312.475 23.0957 312.746 23.0391 312.961 22.9258C313.18 22.8125 313.342 22.6562 313.447 22.457C313.553 22.2578 313.605 22.0293 313.605 21.7715C313.605 21.502 313.557 21.2715 313.459 21.0801C313.365 20.8848 313.221 20.7344 313.025 20.6289C312.834 20.5234 312.59 20.4707 312.293 20.4707C312.043 20.4707 311.816 20.5215 311.613 20.623C311.414 20.7207 311.256 20.8613 311.139 21.0449C311.021 21.2246 310.963 21.4395 310.963 21.6895H309.545C309.545 21.2363 309.664 20.834 309.902 20.4824C310.141 20.1309 310.465 19.8555 310.875 19.6562C311.289 19.4531 311.754 19.3516 312.27 19.3516C312.82 19.3516 313.301 19.4434 313.711 19.627C314.125 19.8066 314.447 20.0762 314.678 20.4355C314.908 20.7949 315.023 21.2402 315.023 21.7715C315.023 22.0137 314.967 22.2598 314.854 22.5098C314.74 22.7598 314.572 22.9883 314.35 23.1953C314.127 23.3984 313.85 23.5645 313.518 23.6934C313.186 23.8184 312.801 23.8809 312.363 23.8809H311.303V23.0957ZM311.303 24.1973V23.4238H312.363C312.863 23.4238 313.289 23.4824 313.641 23.5996C313.996 23.7168 314.285 23.8789 314.508 24.0859C314.73 24.2891 314.893 24.5215 314.994 24.7832C315.1 25.0449 315.152 25.3223 315.152 25.6152C315.152 26.0137 315.08 26.3691 314.936 26.6816C314.795 26.9902 314.594 27.252 314.332 27.4668C314.07 27.6816 313.764 27.8438 313.412 27.9531C313.064 28.0625 312.686 28.1172 312.275 28.1172C311.908 28.1172 311.557 28.0664 311.221 27.9648C310.885 27.8633 310.584 27.7129 310.318 27.5137C310.053 27.3105 309.842 27.0586 309.686 26.7578C309.533 26.4531 309.457 26.1016 309.457 25.7031H310.869C310.869 25.957 310.928 26.1816 311.045 26.377C311.166 26.5684 311.334 26.7188 311.549 26.8281C311.768 26.9375 312.018 26.9922 312.299 26.9922C312.596 26.9922 312.852 26.9395 313.066 26.834C313.281 26.7285 313.445 26.5723 313.559 26.3652C313.676 26.1582 313.734 25.9082 313.734 25.6152C313.734 25.2832 313.67 25.0137 313.541 24.8066C313.412 24.5996 313.229 24.4473 312.99 24.3496C312.752 24.248 312.471 24.1973 312.146 24.1973H311.303ZM320.01 20.6055L317.461 28H315.92L319.131 19.4688H320.115L320.01 20.6055ZM322.143 28L319.588 20.6055L319.477 19.4688H320.467L323.689 28H322.143ZM322.02 24.8359V26.002H317.379V24.8359H322.02Z" fill="black"/>
<path d="M676.363 26.875V28H670.645V27.0332L673.422 24.0039C673.727 23.6602 673.967 23.3633 674.143 23.1133C674.318 22.8633 674.441 22.6387 674.512 22.4395C674.586 22.2363 674.623 22.0391 674.623 21.8477C674.623 21.5781 674.572 21.3418 674.471 21.1387C674.373 20.9316 674.229 20.7695 674.037 20.6523C673.846 20.5312 673.613 20.4707 673.34 20.4707C673.023 20.4707 672.758 20.5391 672.543 20.6758C672.328 20.8125 672.166 21.002 672.057 21.2441C671.947 21.4824 671.893 21.7559 671.893 22.0645H670.48C670.48 21.5684 670.594 21.1152 670.82 20.7051C671.047 20.291 671.375 19.9629 671.805 19.7207C672.234 19.4746 672.752 19.3516 673.357 19.3516C673.928 19.3516 674.412 19.4473 674.811 19.6387C675.209 19.8301 675.512 20.1016 675.719 20.4531C675.93 20.8047 676.035 21.2207 676.035 21.7012C676.035 21.9668 675.992 22.2305 675.906 22.4922C675.82 22.7539 675.697 23.0156 675.537 23.2773C675.381 23.5352 675.195 23.7949 674.98 24.0566C674.766 24.3145 674.529 24.5762 674.271 24.8418L672.426 26.875H676.363ZM681.01 20.6055L678.461 28H676.92L680.131 19.4688H681.115L681.01 20.6055ZM683.143 28L680.588 20.6055L680.477 19.4688H681.467L684.689 28H683.143ZM683.02 24.8359V26.002H678.379V24.8359H683.02Z" fill="black"/>
<path d="M1003 19.4395V28H1001.58V21.1152L999.492 21.8242V20.6582L1002.83 19.4395H1003ZM1009.51 20.6055L1006.96 28H1005.42L1008.63 19.4688H1009.61L1009.51 20.6055ZM1011.64 28L1009.08 20.6055L1008.97 19.4688H1009.96L1013.19 28H1011.64ZM1011.52 24.8359V26.002H1006.88V24.8359H1011.52Z" fill="black"/>
<path d="M1002.5 55.4395V64H1001.09V57.1152L998.996 57.8242V56.6582L1002.33 55.4395H1002.5ZM1008.89 60.1445H1006.71L1006.7 59.0723H1008.6C1008.92 59.0723 1009.19 59.0254 1009.41 58.9316C1009.64 58.834 1009.81 58.6953 1009.93 58.5156C1010.05 58.332 1010.11 58.1113 1010.11 57.8535C1010.11 57.5684 1010.05 57.3359 1009.94 57.1562C1009.83 56.9766 1009.66 56.8457 1009.44 56.7637C1009.21 56.6816 1008.93 56.6406 1008.58 56.6406H1007.16V64H1005.69V55.4688H1008.58C1009.05 55.4688 1009.47 55.5137 1009.84 55.6035C1010.21 55.6934 1010.52 55.834 1010.78 56.0254C1011.04 56.2129 1011.24 56.4512 1011.37 56.7402C1011.51 57.0293 1011.58 57.373 1011.58 57.7715C1011.58 58.123 1011.49 58.4453 1011.32 58.7383C1011.16 59.0273 1010.91 59.2637 1010.58 59.4473C1010.25 59.6309 1009.84 59.7402 1009.36 59.7754L1008.89 60.1445ZM1008.82 64H1006.25L1006.91 62.834H1008.82C1009.15 62.834 1009.43 62.7793 1009.65 62.6699C1009.88 62.5566 1010.04 62.4023 1010.15 62.207C1010.27 62.0078 1010.32 61.7754 1010.32 61.5098C1010.32 61.2324 1010.27 60.9922 1010.18 60.7891C1010.08 60.582 1009.92 60.4238 1009.71 60.3145C1009.5 60.2012 1009.23 60.1445 1008.89 60.1445H1007.23L1007.25 59.0723H1009.4L1009.73 59.4766C1010.2 59.4922 1010.58 59.5957 1010.88 59.7871C1011.19 59.9785 1011.42 60.2266 1011.56 60.5312C1011.71 60.8359 1011.79 61.1641 1011.79 61.5156C1011.79 62.0586 1011.67 62.5137 1011.43 62.8809C1011.2 63.248 1010.86 63.5273 1010.42 63.7188C1009.97 63.9062 1009.44 64 1008.82 64Z" fill="black"/>
<path d="M1003 94.4395V103H1001.58V96.1152L999.492 96.8242V95.6582L1002.83 94.4395H1003ZM1011.22 100.223H1012.69C1012.64 100.781 1012.48 101.279 1012.22 101.717C1011.95 102.15 1011.58 102.492 1011.1 102.742C1010.62 102.992 1010.04 103.117 1009.35 103.117C1008.82 103.117 1008.35 103.023 1007.92 102.836C1007.5 102.645 1007.14 102.375 1006.84 102.027C1006.54 101.676 1006.31 101.252 1006.15 100.756C1005.99 100.26 1005.91 99.7051 1005.91 99.0918V98.3828C1005.91 97.7695 1005.99 97.2148 1006.15 96.7188C1006.32 96.2227 1006.55 95.7988 1006.86 95.4473C1007.16 95.0918 1007.53 94.8203 1007.95 94.6328C1008.38 94.4453 1008.87 94.3516 1009.4 94.3516C1010.08 94.3516 1010.65 94.4766 1011.12 94.7266C1011.59 94.9766 1011.96 95.3223 1012.21 95.7637C1012.47 96.2051 1012.63 96.7109 1012.69 97.2812H1011.23C1011.19 96.9141 1011.1 96.5996 1010.97 96.3379C1010.84 96.0762 1010.65 95.877 1010.4 95.7402C1010.14 95.5996 1009.81 95.5293 1009.4 95.5293C1009.06 95.5293 1008.77 95.5918 1008.52 95.7168C1008.27 95.8418 1008.06 96.0254 1007.89 96.2676C1007.73 96.5098 1007.6 96.8086 1007.51 97.1641C1007.43 97.5156 1007.39 97.918 1007.39 98.3711V99.0918C1007.39 99.5215 1007.43 99.9121 1007.5 100.264C1007.58 100.611 1007.7 100.91 1007.85 101.16C1008.01 101.41 1008.22 101.604 1008.46 101.74C1008.71 101.877 1009 101.945 1009.35 101.945C1009.77 101.945 1010.1 101.879 1010.36 101.746C1010.62 101.613 1010.82 101.42 1010.95 101.166C1011.09 100.908 1011.18 100.594 1011.22 100.223Z" fill="black"/>
<path d="M1003 128.439V137H1001.58V130.115L999.492 130.824V129.658L1002.83 128.439H1003ZM1008.66 137H1006.84L1006.85 135.834H1008.66C1009.19 135.834 1009.63 135.719 1009.99 135.488C1010.35 135.258 1010.62 134.928 1010.79 134.498C1010.98 134.068 1011.07 133.557 1011.07 132.963V132.5C1011.07 132.039 1011.02 131.631 1010.91 131.275C1010.81 130.92 1010.66 130.621 1010.46 130.379C1010.26 130.137 1010.01 129.953 1009.72 129.828C1009.43 129.703 1009.09 129.641 1008.71 129.641H1006.8V128.469H1008.71C1009.28 128.469 1009.8 128.564 1010.27 128.756C1010.74 128.943 1011.14 129.215 1011.48 129.57C1011.82 129.926 1012.09 130.352 1012.27 130.848C1012.46 131.344 1012.55 131.898 1012.55 132.512V132.963C1012.55 133.576 1012.46 134.131 1012.27 134.627C1012.09 135.123 1011.82 135.549 1011.48 135.904C1011.14 136.256 1010.73 136.527 1010.25 136.719C1009.78 136.906 1009.25 137 1008.66 137ZM1007.65 128.469V137H1006.18V128.469H1007.65Z" fill="black"/>
<path d="M1003 162.439V171H1001.58V164.115L999.492 164.824V163.658L1002.83 162.439H1003ZM1011.77 169.834V171H1007.24V169.834H1011.77ZM1007.65 162.469V171H1006.18V162.469H1007.65ZM1011.18 166.031V167.18H1007.24V166.031H1011.18ZM1011.74 162.469V163.641H1007.24V162.469H1011.74Z" fill="black"/>
<path d="M1003 214.439V223H1001.58V216.115L999.492 216.824V215.658L1002.83 214.439H1003ZM1007.65 214.469V223H1006.18V214.469H1007.65ZM1011.13 218.201V219.367H1007.28V218.201H1011.13ZM1011.62 214.469V215.641H1007.28V214.469H1011.62Z" fill="black"/>
<path d="M1003 248.439V257H1001.58V250.115L999.492 250.824V249.658L1002.83 248.439H1003ZM1012.73 252.641V255.898C1012.61 256.059 1012.42 256.234 1012.17 256.426C1011.91 256.613 1011.57 256.775 1011.15 256.912C1010.73 257.049 1010.21 257.117 1009.58 257.117C1009.04 257.117 1008.55 257.027 1008.11 256.848C1007.66 256.664 1007.28 256.396 1006.95 256.045C1006.63 255.693 1006.38 255.266 1006.21 254.762C1006.03 254.254 1005.94 253.676 1005.94 253.027V252.436C1005.94 251.791 1006.02 251.217 1006.18 250.713C1006.35 250.205 1006.58 249.775 1006.89 249.424C1007.19 249.072 1007.56 248.807 1007.99 248.627C1008.42 248.443 1008.91 248.352 1009.46 248.352C1010.16 248.352 1010.74 248.469 1011.19 248.703C1011.65 248.934 1012.01 249.254 1012.26 249.664C1012.51 250.074 1012.67 250.543 1012.73 251.07H1011.29C1011.25 250.773 1011.15 250.508 1011.02 250.273C1010.88 250.039 1010.69 249.855 1010.44 249.723C1010.2 249.586 1009.88 249.518 1009.48 249.518C1009.14 249.518 1008.84 249.582 1008.59 249.711C1008.33 249.84 1008.11 250.029 1007.94 250.279C1007.77 250.529 1007.65 250.834 1007.56 251.193C1007.47 251.553 1007.43 251.963 1007.43 252.424V253.027C1007.43 253.496 1007.48 253.912 1007.58 254.275C1007.68 254.639 1007.82 254.945 1008.01 255.195C1008.2 255.445 1008.44 255.635 1008.71 255.764C1008.98 255.889 1009.29 255.951 1009.63 255.951C1009.97 255.951 1010.25 255.924 1010.46 255.869C1010.68 255.811 1010.85 255.742 1010.97 255.664C1011.1 255.582 1011.2 255.504 1011.27 255.43V253.736H1009.49V252.641H1012.73Z" fill="black"/>
<path d="M1003 282.439V291H1001.58V284.115L999.492 284.824V283.658L1002.83 282.439H1003ZM1011.82 286.031V287.197H1007.29V286.031H1011.82ZM1007.65 282.469V291H1006.18V282.469H1007.65ZM1012.95 282.469V291H1011.49V282.469H1012.95Z" fill="black"/>
<path d="M677.363 60.875V62H671.645V61.0332L674.422 58.0039C674.727 57.6602 674.967 57.3633 675.143 57.1133C675.318 56.8633 675.441 56.6387 675.512 56.4395C675.586 56.2363 675.623 56.0391 675.623 55.8477C675.623 55.5781 675.572 55.3418 675.471 55.1387C675.373 54.9316 675.229 54.7695 675.037 54.6523C674.846 54.5312 674.613 54.4707 674.34 54.4707C674.023 54.4707 673.758 54.5391 673.543 54.6758C673.328 54.8125 673.166 55.002 673.057 55.2441C672.947 55.4824 672.893 55.7559 672.893 56.0645H671.48C671.48 55.5684 671.594 55.1152 671.82 54.7051C672.047 54.291 672.375 53.9629 672.805 53.7207C673.234 53.4746 673.752 53.3516 674.357 53.3516C674.928 53.3516 675.412 53.4473 675.811 53.6387C676.209 53.8301 676.512 54.1016 676.719 54.4531C676.93 54.8047 677.035 55.2207 677.035 55.7012C677.035 55.9668 676.992 56.2305 676.906 56.4922C676.82 56.7539 676.697 57.0156 676.537 57.2773C676.381 57.5352 676.195 57.7949 675.98 58.0566C675.766 58.3145 675.529 58.5762 675.271 58.8418L673.426 60.875H677.363ZM681.887 58.1445H679.713L679.701 57.0723H681.6C681.92 57.0723 682.191 57.0254 682.414 56.9316C682.641 56.834 682.812 56.6953 682.93 56.5156C683.047 56.332 683.105 56.1113 683.105 55.8535C683.105 55.5684 683.051 55.3359 682.941 55.1562C682.832 54.9766 682.664 54.8457 682.438 54.7637C682.215 54.6816 681.93 54.6406 681.582 54.6406H680.158V62H678.688V53.4688H681.582C682.051 53.4688 682.469 53.5137 682.836 53.6035C683.207 53.6934 683.521 53.834 683.779 54.0254C684.041 54.2129 684.238 54.4512 684.371 54.7402C684.508 55.0293 684.576 55.373 684.576 55.7715C684.576 56.123 684.492 56.4453 684.324 56.7383C684.156 57.0273 683.908 57.2637 683.58 57.4473C683.252 57.6309 682.844 57.7402 682.355 57.7754L681.887 58.1445ZM681.822 62H679.25L679.912 60.834H681.822C682.154 60.834 682.432 60.7793 682.654 60.6699C682.877 60.5566 683.043 60.4023 683.152 60.207C683.266 60.0078 683.322 59.7754 683.322 59.5098C683.322 59.2324 683.273 58.9922 683.176 58.7891C683.078 58.582 682.924 58.4238 682.713 58.3145C682.502 58.2012 682.227 58.1445 681.887 58.1445H680.234L680.246 57.0723H682.396L682.73 57.4766C683.199 57.4922 683.584 57.5957 683.885 57.7871C684.189 57.9785 684.416 58.2266 684.564 58.5312C684.713 58.8359 684.787 59.1641 684.787 59.5156C684.787 60.0586 684.668 60.5137 684.43 60.8809C684.195 61.248 683.857 61.5273 683.416 61.7188C682.975 61.9062 682.443 62 681.822 62Z" fill="black"/>
<path d="M676.363 98.875V100H670.645V99.0332L673.422 96.0039C673.727 95.6602 673.967 95.3633 674.143 95.1133C674.318 94.8633 674.441 94.6387 674.512 94.4395C674.586 94.2363 674.623 94.0391 674.623 93.8477C674.623 93.5781 674.572 93.3418 674.471 93.1387C674.373 92.9316 674.229 92.7695 674.037 92.6523C673.846 92.5312 673.613 92.4707 673.34 92.4707C673.023 92.4707 672.758 92.5391 672.543 92.6758C672.328 92.8125 672.166 93.002 672.057 93.2441C671.947 93.4824 671.893 93.7559 671.893 94.0645H670.48C670.48 93.5684 670.594 93.1152 670.82 92.7051C671.047 92.291 671.375 91.9629 671.805 91.7207C672.234 91.4746 672.752 91.3516 673.357 91.3516C673.928 91.3516 674.412 91.4473 674.811 91.6387C675.209 91.8301 675.512 92.1016 675.719 92.4531C675.93 92.8047 676.035 93.2207 676.035 93.7012C676.035 93.9668 675.992 94.2305 675.906 94.4922C675.82 94.7539 675.697 95.0156 675.537 95.2773C675.381 95.5352 675.195 95.7949 674.98 96.0566C674.766 96.3145 674.529 96.5762 674.271 96.8418L672.426 98.875H676.363ZM682.727 97.2227H684.191C684.145 97.7812 683.988 98.2793 683.723 98.7168C683.457 99.1504 683.084 99.4922 682.604 99.7422C682.123 99.9922 681.539 100.117 680.852 100.117C680.324 100.117 679.85 100.023 679.428 99.8359C679.006 99.6445 678.645 99.375 678.344 99.0273C678.043 98.6758 677.812 98.252 677.652 97.7559C677.496 97.2598 677.418 96.7051 677.418 96.0918V95.3828C677.418 94.7695 677.498 94.2148 677.658 93.7188C677.822 93.2227 678.057 92.7988 678.361 92.4473C678.666 92.0918 679.031 91.8203 679.457 91.6328C679.887 91.4453 680.369 91.3516 680.904 91.3516C681.584 91.3516 682.158 91.4766 682.627 91.7266C683.096 91.9766 683.459 92.3223 683.717 92.7637C683.979 93.2051 684.139 93.7109 684.197 94.2812H682.732C682.693 93.9141 682.607 93.5996 682.475 93.3379C682.346 93.0762 682.154 92.877 681.9 92.7402C681.646 92.5996 681.314 92.5293 680.904 92.5293C680.568 92.5293 680.275 92.5918 680.025 92.7168C679.775 92.8418 679.566 93.0254 679.398 93.2676C679.23 93.5098 679.104 93.8086 679.018 94.1641C678.936 94.5156 678.895 94.918 678.895 95.3711V96.0918C678.895 96.5215 678.932 96.9121 679.006 97.2637C679.084 97.6113 679.201 97.9102 679.357 98.1602C679.518 98.4102 679.721 98.6035 679.967 98.7402C680.213 98.877 680.508 98.9453 680.852 98.9453C681.27 98.9453 681.607 98.8789 681.865 98.7461C682.127 98.6133 682.324 98.4199 682.457 98.166C682.594 97.9082 682.684 97.5938 682.727 97.2227Z" fill="black"/>
<path d="M676.363 135.875V137H670.645V136.033L673.422 133.004C673.727 132.66 673.967 132.363 674.143 132.113C674.318 131.863 674.441 131.639 674.512 131.439C674.586 131.236 674.623 131.039 674.623 130.848C674.623 130.578 674.572 130.342 674.471 130.139C674.373 129.932 674.229 129.77 674.037 129.652C673.846 129.531 673.613 129.471 673.34 129.471C673.023 129.471 672.758 129.539 672.543 129.676C672.328 129.812 672.166 130.002 672.057 130.244C671.947 130.482 671.893 130.756 671.893 131.064H670.48C670.48 130.568 670.594 130.115 670.82 129.705C671.047 129.291 671.375 128.963 671.805 128.721C672.234 128.475 672.752 128.352 673.357 128.352C673.928 128.352 674.412 128.447 674.811 128.639C675.209 128.83 675.512 129.102 675.719 129.453C675.93 129.805 676.035 130.221 676.035 130.701C676.035 130.967 675.992 131.23 675.906 131.492C675.82 131.754 675.697 132.016 675.537 132.277C675.381 132.535 675.195 132.795 674.98 133.057C674.766 133.314 674.529 133.576 674.271 133.842L672.426 135.875H676.363ZM680.166 137H678.344L678.355 135.834H680.166C680.693 135.834 681.135 135.719 681.49 135.488C681.85 135.258 682.119 134.928 682.299 134.498C682.482 134.068 682.574 133.557 682.574 132.963V132.5C682.574 132.039 682.521 131.631 682.416 131.275C682.314 130.92 682.162 130.621 681.959 130.379C681.76 130.137 681.514 129.953 681.221 129.828C680.932 129.703 680.598 129.641 680.219 129.641H678.309V128.469H680.219C680.785 128.469 681.303 128.564 681.771 128.756C682.24 128.943 682.645 129.215 682.984 129.57C683.328 129.926 683.592 130.352 683.775 130.848C683.959 131.344 684.051 131.898 684.051 132.512V132.963C684.051 133.576 683.959 134.131 683.775 134.627C683.592 135.123 683.328 135.549 682.984 135.904C682.641 136.256 682.23 136.527 681.754 136.719C681.281 136.906 680.752 137 680.166 137ZM679.158 128.469V137H677.688V128.469H679.158Z" fill="black"/>
<path d="M677.363 169.875V171H671.645V170.033L674.422 167.004C674.727 166.66 674.967 166.363 675.143 166.113C675.318 165.863 675.441 165.639 675.512 165.439C675.586 165.236 675.623 165.039 675.623 164.848C675.623 164.578 675.572 164.342 675.471 164.139C675.373 163.932 675.229 163.77 675.037 163.652C674.846 163.531 674.613 163.471 674.34 163.471C674.023 163.471 673.758 163.539 673.543 163.676C673.328 163.812 673.166 164.002 673.057 164.244C672.947 164.482 672.893 164.756 672.893 165.064H671.48C671.48 164.568 671.594 164.115 671.82 163.705C672.047 163.291 672.375 162.963 672.805 162.721C673.234 162.475 673.752 162.352 674.357 162.352C674.928 162.352 675.412 162.447 675.811 162.639C676.209 162.83 676.512 163.102 676.719 163.453C676.93 163.805 677.035 164.221 677.035 164.701C677.035 164.967 676.992 165.23 676.906 165.492C676.82 165.754 676.697 166.016 676.537 166.277C676.381 166.535 676.195 166.795 675.98 167.057C675.766 167.314 675.529 167.576 675.271 167.842L673.426 169.875H677.363ZM684.271 169.834V171H679.742V169.834H684.271ZM680.158 162.469V171H678.688V162.469H680.158ZM683.68 166.031V167.18H679.742V166.031H683.68ZM684.242 162.469V163.641H679.742V162.469H684.242Z" fill="black"/>
<path d="M677.363 221.875V223H671.645V222.033L674.422 219.004C674.727 218.66 674.967 218.363 675.143 218.113C675.318 217.863 675.441 217.639 675.512 217.439C675.586 217.236 675.623 217.039 675.623 216.848C675.623 216.578 675.572 216.342 675.471 216.139C675.373 215.932 675.229 215.77 675.037 215.652C674.846 215.531 674.613 215.471 674.34 215.471C674.023 215.471 673.758 215.539 673.543 215.676C673.328 215.812 673.166 216.002 673.057 216.244C672.947 216.482 672.893 216.756 672.893 217.064H671.48C671.48 216.568 671.594 216.115 671.82 215.705C672.047 215.291 672.375 214.963 672.805 214.721C673.234 214.475 673.752 214.352 674.357 214.352C674.928 214.352 675.412 214.447 675.811 214.639C676.209 214.83 676.512 215.102 676.719 215.453C676.93 215.805 677.035 216.221 677.035 216.701C677.035 216.967 676.992 217.23 676.906 217.492C676.82 217.754 676.697 218.016 676.537 218.277C676.381 218.535 676.195 218.795 675.98 219.057C675.766 219.314 675.529 219.576 675.271 219.842L673.426 221.875H677.363ZM680.158 214.469V223H678.688V214.469H680.158ZM683.639 218.201V219.367H679.783V218.201H683.639ZM684.125 214.469V215.641H679.783V214.469H684.125Z" fill="black"/>
<path d="M676.363 255.875V257H670.645V256.033L673.422 253.004C673.727 252.66 673.967 252.363 674.143 252.113C674.318 251.863 674.441 251.639 674.512 251.439C674.586 251.236 674.623 251.039 674.623 250.848C674.623 250.578 674.572 250.342 674.471 250.139C674.373 249.932 674.229 249.77 674.037 249.652C673.846 249.531 673.613 249.471 673.34 249.471C673.023 249.471 672.758 249.539 672.543 249.676C672.328 249.812 672.166 250.002 672.057 250.244C671.947 250.482 671.893 250.756 671.893 251.064H670.48C670.48 250.568 670.594 250.115 670.82 249.705C671.047 249.291 671.375 248.963 671.805 248.721C672.234 248.475 672.752 248.352 673.357 248.352C673.928 248.352 674.412 248.447 674.811 248.639C675.209 248.83 675.512 249.102 675.719 249.453C675.93 249.805 676.035 250.221 676.035 250.701C676.035 250.967 675.992 251.23 675.906 251.492C675.82 251.754 675.697 252.016 675.537 252.277C675.381 252.535 675.195 252.795 674.98 253.057C674.766 253.314 674.529 253.576 674.271 253.842L672.426 255.875H676.363ZM684.238 252.641V255.898C684.117 256.059 683.928 256.234 683.67 256.426C683.416 256.613 683.078 256.775 682.656 256.912C682.234 257.049 681.709 257.117 681.08 257.117C680.545 257.117 680.055 257.027 679.609 256.848C679.164 256.664 678.779 256.396 678.455 256.045C678.135 255.693 677.887 255.266 677.711 254.762C677.535 254.254 677.447 253.676 677.447 253.027V252.436C677.447 251.791 677.527 251.217 677.688 250.713C677.852 250.205 678.086 249.775 678.391 249.424C678.695 249.072 679.062 248.807 679.492 248.627C679.926 248.443 680.416 248.352 680.963 248.352C681.662 248.352 682.24 248.469 682.697 248.703C683.158 248.934 683.514 249.254 683.764 249.664C684.014 250.074 684.172 250.543 684.238 251.07H682.797C682.75 250.773 682.658 250.508 682.521 250.273C682.389 250.039 682.197 249.855 681.947 249.723C681.701 249.586 681.381 249.518 680.986 249.518C680.646 249.518 680.348 249.582 680.09 249.711C679.832 249.84 679.617 250.029 679.445 250.279C679.277 250.529 679.15 250.834 679.064 251.193C678.979 251.553 678.936 251.963 678.936 252.424V253.027C678.936 253.496 678.984 253.912 679.082 254.275C679.184 254.639 679.328 254.945 679.516 255.195C679.707 255.445 679.939 255.635 680.213 255.764C680.486 255.889 680.795 255.951 681.139 255.951C681.475 255.951 681.75 255.924 681.965 255.869C682.18 255.811 682.35 255.742 682.475 255.664C682.604 255.582 682.703 255.504 682.773 255.43V253.736H680.998V252.641H684.238Z" fill="black"/>
<path d="M676.363 291.875V293H670.645V292.033L673.422 289.004C673.727 288.66 673.967 288.363 674.143 288.113C674.318 287.863 674.441 287.639 674.512 287.439C674.586 287.236 674.623 287.039 674.623 286.848C674.623 286.578 674.572 286.342 674.471 286.139C674.373 285.932 674.229 285.77 674.037 285.652C673.846 285.531 673.613 285.471 673.34 285.471C673.023 285.471 672.758 285.539 672.543 285.676C672.328 285.812 672.166 286.002 672.057 286.244C671.947 286.482 671.893 286.756 671.893 287.064H670.48C670.48 286.568 670.594 286.115 670.82 285.705C671.047 285.291 671.375 284.963 671.805 284.721C672.234 284.475 672.752 284.352 673.357 284.352C673.928 284.352 674.412 284.447 674.811 284.639C675.209 284.83 675.512 285.102 675.719 285.453C675.93 285.805 676.035 286.221 676.035 286.701C676.035 286.967 675.992 287.23 675.906 287.492C675.82 287.754 675.697 288.016 675.537 288.277C675.381 288.535 675.195 288.795 674.98 289.057C674.766 289.314 674.529 289.576 674.271 289.842L672.426 291.875H676.363ZM683.324 288.031V289.197H678.795V288.031H683.324ZM679.158 284.469V293H677.688V284.469H679.158ZM684.455 284.469V293H682.99V284.469H684.455Z" fill="black"/>
<path d="M678.363 322.875V324H672.645V323.033L675.422 320.004C675.727 319.66 675.967 319.363 676.143 319.113C676.318 318.863 676.441 318.639 676.512 318.439C676.586 318.236 676.623 318.039 676.623 317.848C676.623 317.578 676.572 317.342 676.471 317.139C676.373 316.932 676.229 316.77 676.037 316.652C675.846 316.531 675.613 316.471 675.34 316.471C675.023 316.471 674.758 316.539 674.543 316.676C674.328 316.812 674.166 317.002 674.057 317.244C673.947 317.482 673.893 317.756 673.893 318.064H672.48C672.48 317.568 672.594 317.115 672.82 316.705C673.047 316.291 673.375 315.963 673.805 315.721C674.234 315.475 674.752 315.352 675.357 315.352C675.928 315.352 676.412 315.447 676.811 315.639C677.209 315.83 677.512 316.102 677.719 316.453C677.93 316.805 678.035 317.221 678.035 317.701C678.035 317.967 677.992 318.23 677.906 318.492C677.82 318.754 677.697 319.016 677.537 319.277C677.381 319.535 677.195 319.795 676.98 320.057C676.766 320.314 676.529 320.576 676.271 320.842L674.426 322.875H678.363ZM681.258 315.469V324H679.787V315.469H681.258Z" fill="black"/>
<path d="M677.363 358.875V360H671.645V359.033L674.422 356.004C674.727 355.66 674.967 355.363 675.143 355.113C675.318 354.863 675.441 354.639 675.512 354.439C675.586 354.236 675.623 354.039 675.623 353.848C675.623 353.578 675.572 353.342 675.471 353.139C675.373 352.932 675.229 352.77 675.037 352.652C674.846 352.531 674.613 352.471 674.34 352.471C674.023 352.471 673.758 352.539 673.543 352.676C673.328 352.812 673.166 353.002 673.057 353.244C672.947 353.482 672.893 353.756 672.893 354.064H671.48C671.48 353.568 671.594 353.115 671.82 352.705C672.047 352.291 672.375 351.963 672.805 351.721C673.234 351.475 673.752 351.352 674.357 351.352C674.928 351.352 675.412 351.447 675.811 351.639C676.209 351.83 676.512 352.102 676.719 352.453C676.93 352.805 677.035 353.221 677.035 353.701C677.035 353.967 676.992 354.23 676.906 354.492C676.82 354.754 676.697 355.016 676.537 355.277C676.381 355.535 676.195 355.795 675.98 356.057C675.766 356.314 675.529 356.576 675.271 356.842L673.426 358.875H677.363ZM682.197 357.439V351.469H683.662V357.439C683.662 358.006 683.541 358.488 683.299 358.887C683.057 359.285 682.727 359.59 682.309 359.801C681.891 360.012 681.416 360.117 680.885 360.117C680.342 360.117 679.859 360.025 679.438 359.842C679.02 359.658 678.691 359.377 678.453 358.998C678.215 358.619 678.096 358.139 678.096 357.557H679.572C679.572 357.893 679.625 358.164 679.73 358.371C679.84 358.574 679.992 358.723 680.188 358.816C680.387 358.906 680.619 358.951 680.885 358.951C681.139 358.951 681.363 358.895 681.559 358.781C681.758 358.664 681.914 358.494 682.027 358.271C682.141 358.045 682.197 357.768 682.197 357.439Z" fill="black"/>
<path d="M676.363 392.875V394H670.645V393.033L673.422 390.004C673.727 389.66 673.967 389.363 674.143 389.113C674.318 388.863 674.441 388.639 674.512 388.439C674.586 388.236 674.623 388.039 674.623 387.848C674.623 387.578 674.572 387.342 674.471 387.139C674.373 386.932 674.229 386.77 674.037 386.652C673.846 386.531 673.613 386.471 673.34 386.471C673.023 386.471 672.758 386.539 672.543 386.676C672.328 386.812 672.166 387.002 672.057 387.244C671.947 387.482 671.893 387.756 671.893 388.064H670.48C670.48 387.568 670.594 387.115 670.82 386.705C671.047 386.291 671.375 385.963 671.805 385.721C672.234 385.475 672.752 385.352 673.357 385.352C673.928 385.352 674.412 385.447 674.811 385.639C675.209 385.83 675.512 386.102 675.719 386.453C675.93 386.805 676.035 387.221 676.035 387.701C676.035 387.967 675.992 388.23 675.906 388.492C675.82 388.754 675.697 389.016 675.537 389.277C675.381 389.535 675.195 389.795 674.98 390.057C674.766 390.314 674.529 390.576 674.271 390.842L672.426 392.875H676.363ZM679.158 385.469V394H677.688V385.469H679.158ZM684.285 385.469L680.828 389.576L678.859 391.662L678.602 390.203L680.008 388.469L682.492 385.469H684.285ZM682.703 394L679.896 389.957L680.91 388.955L684.449 394H682.703Z" fill="black"/>
<path d="M677.363 426.875V428H671.645V427.033L674.422 424.004C674.727 423.66 674.967 423.363 675.143 423.113C675.318 422.863 675.441 422.639 675.512 422.439C675.586 422.236 675.623 422.039 675.623 421.848C675.623 421.578 675.572 421.342 675.471 421.139C675.373 420.932 675.229 420.77 675.037 420.652C674.846 420.531 674.613 420.471 674.34 420.471C674.023 420.471 673.758 420.539 673.543 420.676C673.328 420.812 673.166 421.002 673.057 421.244C672.947 421.482 672.893 421.756 672.893 422.064H671.48C671.48 421.568 671.594 421.115 671.82 420.705C672.047 420.291 672.375 419.963 672.805 419.721C673.234 419.475 673.752 419.352 674.357 419.352C674.928 419.352 675.412 419.447 675.811 419.639C676.209 419.83 676.512 420.102 676.719 420.453C676.93 420.805 677.035 421.221 677.035 421.701C677.035 421.967 676.992 422.23 676.906 422.492C676.82 422.754 676.697 423.016 676.537 423.277C676.381 423.535 676.195 423.795 675.98 424.057C675.766 424.314 675.529 424.576 675.271 424.842L673.426 426.875H677.363ZM684.031 426.834V428H679.748V426.834H684.031ZM680.158 419.469V428H678.688V419.469H680.158Z" fill="black"/>
<path d="M311.303 60.0957H312.146C312.475 60.0957 312.746 60.0391 312.961 59.9258C313.18 59.8125 313.342 59.6562 313.447 59.457C313.553 59.2578 313.605 59.0293 313.605 58.7715C313.605 58.502 313.557 58.2715 313.459 58.0801C313.365 57.8848 313.221 57.7344 313.025 57.6289C312.834 57.5234 312.59 57.4707 312.293 57.4707C312.043 57.4707 311.816 57.5215 311.613 57.623C311.414 57.7207 311.256 57.8613 311.139 58.0449C311.021 58.2246 310.963 58.4395 310.963 58.6895H309.545C309.545 58.2363 309.664 57.834 309.902 57.4824C310.141 57.1309 310.465 56.8555 310.875 56.6562C311.289 56.4531 311.754 56.3516 312.27 56.3516C312.82 56.3516 313.301 56.4434 313.711 56.627C314.125 56.8066 314.447 57.0762 314.678 57.4355C314.908 57.7949 315.023 58.2402 315.023 58.7715C315.023 59.0137 314.967 59.2598 314.854 59.5098C314.74 59.7598 314.572 59.9883 314.35 60.1953C314.127 60.3984 313.85 60.5645 313.518 60.6934C313.186 60.8184 312.801 60.8809 312.363 60.8809H311.303V60.0957ZM311.303 61.1973V60.4238H312.363C312.863 60.4238 313.289 60.4824 313.641 60.5996C313.996 60.7168 314.285 60.8789 314.508 61.0859C314.73 61.2891 314.893 61.5215 314.994 61.7832C315.1 62.0449 315.152 62.3223 315.152 62.6152C315.152 63.0137 315.08 63.3691 314.936 63.6816C314.795 63.9902 314.594 64.252 314.332 64.4668C314.07 64.6816 313.764 64.8438 313.412 64.9531C313.064 65.0625 312.686 65.1172 312.275 65.1172C311.908 65.1172 311.557 65.0664 311.221 64.9648C310.885 64.8633 310.584 64.7129 310.318 64.5137C310.053 64.3105 309.842 64.0586 309.686 63.7578C309.533 63.4531 309.457 63.1016 309.457 62.7031H310.869C310.869 62.957 310.928 63.1816 311.045 63.377C311.166 63.5684 311.334 63.7188 311.549 63.8281C311.768 63.9375 312.018 63.9922 312.299 63.9922C312.596 63.9922 312.852 63.9395 313.066 63.834C313.281 63.7285 313.445 63.5723 313.559 63.3652C313.676 63.1582 313.734 62.9082 313.734 62.6152C313.734 62.2832 313.67 62.0137 313.541 61.8066C313.412 61.5996 313.229 61.4473 312.99 61.3496C312.752 61.248 312.471 61.1973 312.146 61.1973H311.303ZM319.887 61.1445H317.713L317.701 60.0723H319.6C319.92 60.0723 320.191 60.0254 320.414 59.9316C320.641 59.834 320.812 59.6953 320.93 59.5156C321.047 59.332 321.105 59.1113 321.105 58.8535C321.105 58.5684 321.051 58.3359 320.941 58.1562C320.832 57.9766 320.664 57.8457 320.438 57.7637C320.215 57.6816 319.93 57.6406 319.582 57.6406H318.158V65H316.688V56.4688H319.582C320.051 56.4688 320.469 56.5137 320.836 56.6035C321.207 56.6934 321.521 56.834 321.779 57.0254C322.041 57.2129 322.238 57.4512 322.371 57.7402C322.508 58.0293 322.576 58.373 322.576 58.7715C322.576 59.123 322.492 59.4453 322.324 59.7383C322.156 60.0273 321.908 60.2637 321.58 60.4473C321.252 60.6309 320.844 60.7402 320.355 60.7754L319.887 61.1445ZM319.822 65H317.25L317.912 63.834H319.822C320.154 63.834 320.432 63.7793 320.654 63.6699C320.877 63.5566 321.043 63.4023 321.152 63.207C321.266 63.0078 321.322 62.7754 321.322 62.5098C321.322 62.2324 321.273 61.9922 321.176 61.7891C321.078 61.582 320.924 61.4238 320.713 61.3145C320.502 61.2012 320.227 61.1445 319.887 61.1445H318.234L318.246 60.0723H320.396L320.73 60.4766C321.199 60.4922 321.584 60.5957 321.885 60.7871C322.189 60.9785 322.416 61.2266 322.564 61.5312C322.713 61.8359 322.787 62.1641 322.787 62.5156C322.787 63.0586 322.668 63.5137 322.43 63.8809C322.195 64.248 321.857 64.5273 321.416 64.7188C320.975 64.9062 320.443 65 319.822 65Z" fill="black"/>
<path d="M311.303 95.0957H312.146C312.475 95.0957 312.746 95.0391 312.961 94.9258C313.18 94.8125 313.342 94.6562 313.447 94.457C313.553 94.2578 313.605 94.0293 313.605 93.7715C313.605 93.502 313.557 93.2715 313.459 93.0801C313.365 92.8848 313.221 92.7344 313.025 92.6289C312.834 92.5234 312.59 92.4707 312.293 92.4707C312.043 92.4707 311.816 92.5215 311.613 92.623C311.414 92.7207 311.256 92.8613 311.139 93.0449C311.021 93.2246 310.963 93.4395 310.963 93.6895H309.545C309.545 93.2363 309.664 92.834 309.902 92.4824C310.141 92.1309 310.465 91.8555 310.875 91.6562C311.289 91.4531 311.754 91.3516 312.27 91.3516C312.82 91.3516 313.301 91.4434 313.711 91.627C314.125 91.8066 314.447 92.0762 314.678 92.4355C314.908 92.7949 315.023 93.2402 315.023 93.7715C315.023 94.0137 314.967 94.2598 314.854 94.5098C314.74 94.7598 314.572 94.9883 314.35 95.1953C314.127 95.3984 313.85 95.5645 313.518 95.6934C313.186 95.8184 312.801 95.8809 312.363 95.8809H311.303V95.0957ZM311.303 96.1973V95.4238H312.363C312.863 95.4238 313.289 95.4824 313.641 95.5996C313.996 95.7168 314.285 95.8789 314.508 96.0859C314.73 96.2891 314.893 96.5215 314.994 96.7832C315.1 97.0449 315.152 97.3223 315.152 97.6152C315.152 98.0137 315.08 98.3691 314.936 98.6816C314.795 98.9902 314.594 99.252 314.332 99.4668C314.07 99.6816 313.764 99.8438 313.412 99.9531C313.064 100.062 312.686 100.117 312.275 100.117C311.908 100.117 311.557 100.066 311.221 99.9648C310.885 99.8633 310.584 99.7129 310.318 99.5137C310.053 99.3105 309.842 99.0586 309.686 98.7578C309.533 98.4531 309.457 98.1016 309.457 97.7031H310.869C310.869 97.957 310.928 98.1816 311.045 98.377C311.166 98.5684 311.334 98.7188 311.549 98.8281C311.768 98.9375 312.018 98.9922 312.299 98.9922C312.596 98.9922 312.852 98.9395 313.066 98.834C313.281 98.7285 313.445 98.5723 313.559 98.3652C313.676 98.1582 313.734 97.9082 313.734 97.6152C313.734 97.2832 313.67 97.0137 313.541 96.8066C313.412 96.5996 313.229 96.4473 312.99 96.3496C312.752 96.248 312.471 96.1973 312.146 96.1973H311.303ZM321.727 97.2227H323.191C323.145 97.7812 322.988 98.2793 322.723 98.7168C322.457 99.1504 322.084 99.4922 321.604 99.7422C321.123 99.9922 320.539 100.117 319.852 100.117C319.324 100.117 318.85 100.023 318.428 99.8359C318.006 99.6445 317.645 99.375 317.344 99.0273C317.043 98.6758 316.812 98.252 316.652 97.7559C316.496 97.2598 316.418 96.7051 316.418 96.0918V95.3828C316.418 94.7695 316.498 94.2148 316.658 93.7188C316.822 93.2227 317.057 92.7988 317.361 92.4473C317.666 92.0918 318.031 91.8203 318.457 91.6328C318.887 91.4453 319.369 91.3516 319.904 91.3516C320.584 91.3516 321.158 91.4766 321.627 91.7266C322.096 91.9766 322.459 92.3223 322.717 92.7637C322.979 93.2051 323.139 93.7109 323.197 94.2812H321.732C321.693 93.9141 321.607 93.5996 321.475 93.3379C321.346 93.0762 321.154 92.877 320.9 92.7402C320.646 92.5996 320.314 92.5293 319.904 92.5293C319.568 92.5293 319.275 92.5918 319.025 92.7168C318.775 92.8418 318.566 93.0254 318.398 93.2676C318.23 93.5098 318.104 93.8086 318.018 94.1641C317.936 94.5156 317.895 94.918 317.895 95.3711V96.0918C317.895 96.5215 317.932 96.9121 318.006 97.2637C318.084 97.6113 318.201 97.9102 318.357 98.1602C318.518 98.4102 318.721 98.6035 318.967 98.7402C319.213 98.877 319.508 98.9453 319.852 98.9453C320.27 98.9453 320.607 98.8789 320.865 98.7461C321.127 98.6133 321.324 98.4199 321.457 98.166C321.594 97.9082 321.684 97.5938 321.727 97.2227Z" fill="black"/>
<path d="M311.303 131.096H312.146C312.475 131.096 312.746 131.039 312.961 130.926C313.18 130.812 313.342 130.656 313.447 130.457C313.553 130.258 313.605 130.029 313.605 129.771C313.605 129.502 313.557 129.271 313.459 129.08C313.365 128.885 313.221 128.734 313.025 128.629C312.834 128.523 312.59 128.471 312.293 128.471C312.043 128.471 311.816 128.521 311.613 128.623C311.414 128.721 311.256 128.861 311.139 129.045C311.021 129.225 310.963 129.439 310.963 129.689H309.545C309.545 129.236 309.664 128.834 309.902 128.482C310.141 128.131 310.465 127.855 310.875 127.656C311.289 127.453 311.754 127.352 312.27 127.352C312.82 127.352 313.301 127.443 313.711 127.627C314.125 127.807 314.447 128.076 314.678 128.436C314.908 128.795 315.023 129.24 315.023 129.771C315.023 130.014 314.967 130.26 314.854 130.51C314.74 130.76 314.572 130.988 314.35 131.195C314.127 131.398 313.85 131.564 313.518 131.693C313.186 131.818 312.801 131.881 312.363 131.881H311.303V131.096ZM311.303 132.197V131.424H312.363C312.863 131.424 313.289 131.482 313.641 131.6C313.996 131.717 314.285 131.879 314.508 132.086C314.73 132.289 314.893 132.521 314.994 132.783C315.1 133.045 315.152 133.322 315.152 133.615C315.152 134.014 315.08 134.369 314.936 134.682C314.795 134.99 314.594 135.252 314.332 135.467C314.07 135.682 313.764 135.844 313.412 135.953C313.064 136.062 312.686 136.117 312.275 136.117C311.908 136.117 311.557 136.066 311.221 135.965C310.885 135.863 310.584 135.713 310.318 135.514C310.053 135.311 309.842 135.059 309.686 134.758C309.533 134.453 309.457 134.102 309.457 133.703H310.869C310.869 133.957 310.928 134.182 311.045 134.377C311.166 134.568 311.334 134.719 311.549 134.828C311.768 134.938 312.018 134.992 312.299 134.992C312.596 134.992 312.852 134.939 313.066 134.834C313.281 134.729 313.445 134.572 313.559 134.365C313.676 134.158 313.734 133.908 313.734 133.615C313.734 133.283 313.67 133.014 313.541 132.807C313.412 132.6 313.229 132.447 312.99 132.35C312.752 132.248 312.471 132.197 312.146 132.197H311.303ZM319.166 136H317.344L317.355 134.834H319.166C319.693 134.834 320.135 134.719 320.49 134.488C320.85 134.258 321.119 133.928 321.299 133.498C321.482 133.068 321.574 132.557 321.574 131.963V131.5C321.574 131.039 321.521 130.631 321.416 130.275C321.314 129.92 321.162 129.621 320.959 129.379C320.76 129.137 320.514 128.953 320.221 128.828C319.932 128.703 319.598 128.641 319.219 128.641H317.309V127.469H319.219C319.785 127.469 320.303 127.564 320.771 127.756C321.24 127.943 321.645 128.215 321.984 128.57C322.328 128.926 322.592 129.352 322.775 129.848C322.959 130.344 323.051 130.898 323.051 131.512V131.963C323.051 132.576 322.959 133.131 322.775 133.627C322.592 134.123 322.328 134.549 321.984 134.904C321.641 135.256 321.23 135.527 320.754 135.719C320.281 135.906 319.752 136 319.166 136ZM318.158 127.469V136H316.688V127.469H318.158Z" fill="black"/>
<path d="M257.303 279.096H258.146C258.475 279.096 258.746 279.039 258.961 278.926C259.18 278.812 259.342 278.656 259.447 278.457C259.553 278.258 259.605 278.029 259.605 277.771C259.605 277.502 259.557 277.271 259.459 277.08C259.365 276.885 259.221 276.734 259.025 276.629C258.834 276.523 258.59 276.471 258.293 276.471C258.043 276.471 257.816 276.521 257.613 276.623C257.414 276.721 257.256 276.861 257.139 277.045C257.021 277.225 256.963 277.439 256.963 277.689H255.545C255.545 277.236 255.664 276.834 255.902 276.482C256.141 276.131 256.465 275.855 256.875 275.656C257.289 275.453 257.754 275.352 258.27 275.352C258.82 275.352 259.301 275.443 259.711 275.627C260.125 275.807 260.447 276.076 260.678 276.436C260.908 276.795 261.023 277.24 261.023 277.771C261.023 278.014 260.967 278.26 260.854 278.51C260.74 278.76 260.572 278.988 260.35 279.195C260.127 279.398 259.85 279.564 259.518 279.693C259.186 279.818 258.801 279.881 258.363 279.881H257.303V279.096ZM257.303 280.197V279.424H258.363C258.863 279.424 259.289 279.482 259.641 279.6C259.996 279.717 260.285 279.879 260.508 280.086C260.73 280.289 260.893 280.521 260.994 280.783C261.1 281.045 261.152 281.322 261.152 281.615C261.152 282.014 261.08 282.369 260.936 282.682C260.795 282.99 260.594 283.252 260.332 283.467C260.07 283.682 259.764 283.844 259.412 283.953C259.064 284.062 258.686 284.117 258.275 284.117C257.908 284.117 257.557 284.066 257.221 283.965C256.885 283.863 256.584 283.713 256.318 283.514C256.053 283.311 255.842 283.059 255.686 282.758C255.533 282.453 255.457 282.102 255.457 281.703H256.869C256.869 281.957 256.928 282.182 257.045 282.377C257.166 282.568 257.334 282.719 257.549 282.828C257.768 282.938 258.018 282.992 258.299 282.992C258.596 282.992 258.852 282.939 259.066 282.834C259.281 282.729 259.445 282.572 259.559 282.365C259.676 282.158 259.734 281.908 259.734 281.615C259.734 281.283 259.67 281.014 259.541 280.807C259.412 280.6 259.229 280.447 258.99 280.35C258.752 280.248 258.471 280.197 258.146 280.197H257.303ZM268.324 279.031V280.197H263.795V279.031H268.324ZM264.158 275.469V284H262.688V275.469H264.158ZM269.455 275.469V284H267.99V275.469H269.455Z" fill="black"/>
<path d="M259.303 315.096H260.146C260.475 315.096 260.746 315.039 260.961 314.926C261.18 314.812 261.342 314.656 261.447 314.457C261.553 314.258 261.605 314.029 261.605 313.771C261.605 313.502 261.557 313.271 261.459 313.08C261.365 312.885 261.221 312.734 261.025 312.629C260.834 312.523 260.59 312.471 260.293 312.471C260.043 312.471 259.816 312.521 259.613 312.623C259.414 312.721 259.256 312.861 259.139 313.045C259.021 313.225 258.963 313.439 258.963 313.689H257.545C257.545 313.236 257.664 312.834 257.902 312.482C258.141 312.131 258.465 311.855 258.875 311.656C259.289 311.453 259.754 311.352 260.27 311.352C260.82 311.352 261.301 311.443 261.711 311.627C262.125 311.807 262.447 312.076 262.678 312.436C262.908 312.795 263.023 313.24 263.023 313.771C263.023 314.014 262.967 314.26 262.854 314.51C262.74 314.76 262.572 314.988 262.35 315.195C262.127 315.398 261.85 315.564 261.518 315.693C261.186 315.818 260.801 315.881 260.363 315.881H259.303V315.096ZM259.303 316.197V315.424H260.363C260.863 315.424 261.289 315.482 261.641 315.6C261.996 315.717 262.285 315.879 262.508 316.086C262.73 316.289 262.893 316.521 262.994 316.783C263.1 317.045 263.152 317.322 263.152 317.615C263.152 318.014 263.08 318.369 262.936 318.682C262.795 318.99 262.594 319.252 262.332 319.467C262.07 319.682 261.764 319.844 261.412 319.953C261.064 320.062 260.686 320.117 260.275 320.117C259.908 320.117 259.557 320.066 259.221 319.965C258.885 319.863 258.584 319.713 258.318 319.514C258.053 319.311 257.842 319.059 257.686 318.758C257.533 318.453 257.457 318.102 257.457 317.703H258.869C258.869 317.957 258.928 318.182 259.045 318.377C259.166 318.568 259.334 318.719 259.549 318.828C259.768 318.938 260.018 318.992 260.299 318.992C260.596 318.992 260.852 318.939 261.066 318.834C261.281 318.729 261.445 318.572 261.559 318.365C261.676 318.158 261.734 317.908 261.734 317.615C261.734 317.283 261.67 317.014 261.541 316.807C261.412 316.6 261.229 316.447 260.99 316.35C260.752 316.248 260.471 316.197 260.146 316.197H259.303ZM266.258 311.469V320H264.787V311.469H266.258Z" fill="black"/>
<path d="M259.303 350.096H260.146C260.475 350.096 260.746 350.039 260.961 349.926C261.18 349.812 261.342 349.656 261.447 349.457C261.553 349.258 261.605 349.029 261.605 348.771C261.605 348.502 261.557 348.271 261.459 348.08C261.365 347.885 261.221 347.734 261.025 347.629C260.834 347.523 260.59 347.471 260.293 347.471C260.043 347.471 259.816 347.521 259.613 347.623C259.414 347.721 259.256 347.861 259.139 348.045C259.021 348.225 258.963 348.439 258.963 348.689H257.545C257.545 348.236 257.664 347.834 257.902 347.482C258.141 347.131 258.465 346.855 258.875 346.656C259.289 346.453 259.754 346.352 260.27 346.352C260.82 346.352 261.301 346.443 261.711 346.627C262.125 346.807 262.447 347.076 262.678 347.436C262.908 347.795 263.023 348.24 263.023 348.771C263.023 349.014 262.967 349.26 262.854 349.51C262.74 349.76 262.572 349.988 262.35 350.195C262.127 350.398 261.85 350.564 261.518 350.693C261.186 350.818 260.801 350.881 260.363 350.881H259.303V350.096ZM259.303 351.197V350.424H260.363C260.863 350.424 261.289 350.482 261.641 350.6C261.996 350.717 262.285 350.879 262.508 351.086C262.73 351.289 262.893 351.521 262.994 351.783C263.1 352.045 263.152 352.322 263.152 352.615C263.152 353.014 263.08 353.369 262.936 353.682C262.795 353.99 262.594 354.252 262.332 354.467C262.07 354.682 261.764 354.844 261.412 354.953C261.064 355.062 260.686 355.117 260.275 355.117C259.908 355.117 259.557 355.066 259.221 354.965C258.885 354.863 258.584 354.713 258.318 354.514C258.053 354.311 257.842 354.059 257.686 353.758C257.533 353.453 257.457 353.102 257.457 352.703H258.869C258.869 352.957 258.928 353.182 259.045 353.377C259.166 353.568 259.334 353.719 259.549 353.828C259.768 353.938 260.018 353.992 260.299 353.992C260.596 353.992 260.852 353.939 261.066 353.834C261.281 353.729 261.445 353.572 261.559 353.365C261.676 353.158 261.734 352.908 261.734 352.615C261.734 352.283 261.67 352.014 261.541 351.807C261.412 351.6 261.229 351.447 260.99 351.35C260.752 351.248 260.471 351.197 260.146 351.197H259.303ZM268.197 352.439V346.469H269.662V352.439C269.662 353.006 269.541 353.488 269.299 353.887C269.057 354.285 268.727 354.59 268.309 354.801C267.891 355.012 267.416 355.117 266.885 355.117C266.342 355.117 265.859 355.025 265.438 354.842C265.02 354.658 264.691 354.377 264.453 353.998C264.215 353.619 264.096 353.139 264.096 352.557H265.572C265.572 352.893 265.625 353.164 265.73 353.371C265.84 353.574 265.992 353.723 266.188 353.816C266.387 353.906 266.619 353.951 266.885 353.951C267.139 353.951 267.363 353.895 267.559 353.781C267.758 353.664 267.914 353.494 268.027 353.271C268.141 353.045 268.197 352.768 268.197 352.439Z" fill="black"/>
<path d="M258.303 387.096H259.146C259.475 387.096 259.746 387.039 259.961 386.926C260.18 386.812 260.342 386.656 260.447 386.457C260.553 386.258 260.605 386.029 260.605 385.771C260.605 385.502 260.557 385.271 260.459 385.08C260.365 384.885 260.221 384.734 260.025 384.629C259.834 384.523 259.59 384.471 259.293 384.471C259.043 384.471 258.816 384.521 258.613 384.623C258.414 384.721 258.256 384.861 258.139 385.045C258.021 385.225 257.963 385.439 257.963 385.689H256.545C256.545 385.236 256.664 384.834 256.902 384.482C257.141 384.131 257.465 383.855 257.875 383.656C258.289 383.453 258.754 383.352 259.27 383.352C259.82 383.352 260.301 383.443 260.711 383.627C261.125 383.807 261.447 384.076 261.678 384.436C261.908 384.795 262.023 385.24 262.023 385.771C262.023 386.014 261.967 386.26 261.854 386.51C261.74 386.76 261.572 386.988 261.35 387.195C261.127 387.398 260.85 387.564 260.518 387.693C260.186 387.818 259.801 387.881 259.363 387.881H258.303V387.096ZM258.303 388.197V387.424H259.363C259.863 387.424 260.289 387.482 260.641 387.6C260.996 387.717 261.285 387.879 261.508 388.086C261.73 388.289 261.893 388.521 261.994 388.783C262.1 389.045 262.152 389.322 262.152 389.615C262.152 390.014 262.08 390.369 261.936 390.682C261.795 390.99 261.594 391.252 261.332 391.467C261.07 391.682 260.764 391.844 260.412 391.953C260.064 392.062 259.686 392.117 259.275 392.117C258.908 392.117 258.557 392.066 258.221 391.965C257.885 391.863 257.584 391.713 257.318 391.514C257.053 391.311 256.842 391.059 256.686 390.758C256.533 390.453 256.457 390.102 256.457 389.703H257.869C257.869 389.957 257.928 390.182 258.045 390.377C258.166 390.568 258.334 390.719 258.549 390.828C258.768 390.938 259.018 390.992 259.299 390.992C259.596 390.992 259.852 390.939 260.066 390.834C260.281 390.729 260.445 390.572 260.559 390.365C260.676 390.158 260.734 389.908 260.734 389.615C260.734 389.283 260.67 389.014 260.541 388.807C260.412 388.6 260.229 388.447 259.99 388.35C259.752 388.248 259.471 388.197 259.146 388.197H258.303ZM265.158 383.469V392H263.688V383.469H265.158ZM270.285 383.469L266.828 387.576L264.859 389.662L264.602 388.203L266.008 386.469L268.492 383.469H270.285ZM268.703 392L265.896 387.957L266.91 386.955L270.449 392H268.703Z" fill="black"/>
<path d="M259.303 423.096H260.146C260.475 423.096 260.746 423.039 260.961 422.926C261.18 422.812 261.342 422.656 261.447 422.457C261.553 422.258 261.605 422.029 261.605 421.771C261.605 421.502 261.557 421.271 261.459 421.08C261.365 420.885 261.221 420.734 261.025 420.629C260.834 420.523 260.59 420.471 260.293 420.471C260.043 420.471 259.816 420.521 259.613 420.623C259.414 420.721 259.256 420.861 259.139 421.045C259.021 421.225 258.963 421.439 258.963 421.689H257.545C257.545 421.236 257.664 420.834 257.902 420.482C258.141 420.131 258.465 419.855 258.875 419.656C259.289 419.453 259.754 419.352 260.27 419.352C260.82 419.352 261.301 419.443 261.711 419.627C262.125 419.807 262.447 420.076 262.678 420.436C262.908 420.795 263.023 421.24 263.023 421.771C263.023 422.014 262.967 422.26 262.854 422.51C262.74 422.76 262.572 422.988 262.35 423.195C262.127 423.398 261.85 423.564 261.518 423.693C261.186 423.818 260.801 423.881 260.363 423.881H259.303V423.096ZM259.303 424.197V423.424H260.363C260.863 423.424 261.289 423.482 261.641 423.6C261.996 423.717 262.285 423.879 262.508 424.086C262.73 424.289 262.893 424.521 262.994 424.783C263.1 425.045 263.152 425.322 263.152 425.615C263.152 426.014 263.08 426.369 262.936 426.682C262.795 426.99 262.594 427.252 262.332 427.467C262.07 427.682 261.764 427.844 261.412 427.953C261.064 428.062 260.686 428.117 260.275 428.117C259.908 428.117 259.557 428.066 259.221 427.965C258.885 427.863 258.584 427.713 258.318 427.514C258.053 427.311 257.842 427.059 257.686 426.758C257.533 426.453 257.457 426.102 257.457 425.703H258.869C258.869 425.957 258.928 426.182 259.045 426.377C259.166 426.568 259.334 426.719 259.549 426.828C259.768 426.938 260.018 426.992 260.299 426.992C260.596 426.992 260.852 426.939 261.066 426.834C261.281 426.729 261.445 426.572 261.559 426.365C261.676 426.158 261.734 425.908 261.734 425.615C261.734 425.283 261.67 425.014 261.541 424.807C261.412 424.6 261.229 424.447 260.99 424.35C260.752 424.248 260.471 424.197 260.146 424.197H259.303ZM270.031 426.834V428H265.748V426.834H270.031ZM266.158 419.469V428H264.688V419.469H266.158Z" fill="black"/>
<path d="M199.287 169.441L201.531 162.469H203.154L200.096 171H199L199.287 169.441ZM197.213 162.469L199.439 169.441L199.744 171H198.643L195.596 162.469H197.213ZM208.598 168.803C208.598 168.627 208.57 168.471 208.516 168.334C208.465 168.197 208.373 168.072 208.24 167.959C208.107 167.846 207.92 167.736 207.678 167.631C207.439 167.521 207.135 167.41 206.764 167.297C206.357 167.172 205.982 167.033 205.639 166.881C205.299 166.725 205.002 166.545 204.748 166.342C204.494 166.135 204.297 165.898 204.156 165.633C204.016 165.363 203.945 165.053 203.945 164.701C203.945 164.354 204.018 164.037 204.162 163.752C204.311 163.467 204.52 163.221 204.789 163.014C205.062 162.803 205.385 162.641 205.756 162.527C206.127 162.41 206.537 162.352 206.986 162.352C207.619 162.352 208.164 162.469 208.621 162.703C209.082 162.938 209.436 163.252 209.682 163.646C209.932 164.041 210.057 164.477 210.057 164.953H208.598C208.598 164.672 208.537 164.424 208.416 164.209C208.299 163.99 208.119 163.818 207.877 163.693C207.639 163.568 207.336 163.506 206.969 163.506C206.621 163.506 206.332 163.559 206.102 163.664C205.871 163.77 205.699 163.912 205.586 164.092C205.473 164.271 205.416 164.475 205.416 164.701C205.416 164.861 205.453 165.008 205.527 165.141C205.602 165.27 205.715 165.391 205.867 165.504C206.02 165.613 206.211 165.717 206.441 165.814C206.672 165.912 206.943 166.006 207.256 166.096C207.729 166.236 208.141 166.393 208.492 166.564C208.844 166.732 209.137 166.924 209.371 167.139C209.605 167.354 209.781 167.598 209.898 167.871C210.016 168.141 210.074 168.447 210.074 168.791C210.074 169.15 210.002 169.475 209.857 169.764C209.713 170.049 209.506 170.293 209.236 170.496C208.971 170.695 208.65 170.85 208.275 170.959C207.904 171.064 207.49 171.117 207.033 171.117C206.623 171.117 206.219 171.062 205.82 170.953C205.426 170.844 205.066 170.678 204.742 170.455C204.418 170.229 204.16 169.947 203.969 169.611C203.777 169.271 203.682 168.875 203.682 168.422H205.152C205.152 168.699 205.199 168.936 205.293 169.131C205.391 169.326 205.525 169.486 205.697 169.611C205.869 169.732 206.068 169.822 206.295 169.881C206.525 169.939 206.771 169.969 207.033 169.969C207.377 169.969 207.664 169.92 207.895 169.822C208.129 169.725 208.305 169.588 208.422 169.412C208.539 169.236 208.598 169.033 208.598 168.803ZM214.885 162.469V171H213.426V162.469H214.885ZM217.562 162.469V163.641H210.771V162.469H217.562Z" fill="black"/>
<path d="M367.402 168.223H368.867C368.82 168.781 368.664 169.279 368.398 169.717C368.133 170.15 367.76 170.492 367.279 170.742C366.799 170.992 366.215 171.117 365.527 171.117C365 171.117 364.525 171.023 364.104 170.836C363.682 170.645 363.32 170.375 363.02 170.027C362.719 169.676 362.488 169.252 362.328 168.756C362.172 168.26 362.094 167.705 362.094 167.092V166.383C362.094 165.77 362.174 165.215 362.334 164.719C362.498 164.223 362.732 163.799 363.037 163.447C363.342 163.092 363.707 162.82 364.133 162.633C364.562 162.445 365.045 162.352 365.58 162.352C366.26 162.352 366.834 162.477 367.303 162.727C367.771 162.977 368.135 163.322 368.393 163.764C368.654 164.205 368.814 164.711 368.873 165.281H367.408C367.369 164.914 367.283 164.6 367.15 164.338C367.021 164.076 366.83 163.877 366.576 163.74C366.322 163.6 365.99 163.529 365.58 163.529C365.244 163.529 364.951 163.592 364.701 163.717C364.451 163.842 364.242 164.025 364.074 164.268C363.906 164.51 363.779 164.809 363.693 165.164C363.611 165.516 363.57 165.918 363.57 166.371V167.092C363.57 167.521 363.607 167.912 363.682 168.264C363.76 168.611 363.877 168.91 364.033 169.16C364.193 169.41 364.396 169.604 364.643 169.74C364.889 169.877 365.184 169.945 365.527 169.945C365.945 169.945 366.283 169.879 366.541 169.746C366.803 169.613 367 169.42 367.133 169.166C367.27 168.908 367.359 168.594 367.402 168.223ZM371.674 162.469V171H370.203V162.469H371.674ZM375.154 166.201V167.367H371.299V166.201H375.154ZM375.641 162.469V163.641H371.299V162.469H375.641ZM381.301 168.803C381.301 168.627 381.273 168.471 381.219 168.334C381.168 168.197 381.076 168.072 380.943 167.959C380.811 167.846 380.623 167.736 380.381 167.631C380.143 167.521 379.838 167.41 379.467 167.297C379.061 167.172 378.686 167.033 378.342 166.881C378.002 166.725 377.705 166.545 377.451 166.342C377.197 166.135 377 165.898 376.859 165.633C376.719 165.363 376.648 165.053 376.648 164.701C376.648 164.354 376.721 164.037 376.865 163.752C377.014 163.467 377.223 163.221 377.492 163.014C377.766 162.803 378.088 162.641 378.459 162.527C378.83 162.41 379.24 162.352 379.689 162.352C380.322 162.352 380.867 162.469 381.324 162.703C381.785 162.938 382.139 163.252 382.385 163.646C382.635 164.041 382.76 164.477 382.76 164.953H381.301C381.301 164.672 381.24 164.424 381.119 164.209C381.002 163.99 380.822 163.818 380.58 163.693C380.342 163.568 380.039 163.506 379.672 163.506C379.324 163.506 379.035 163.559 378.805 163.664C378.574 163.77 378.402 163.912 378.289 164.092C378.176 164.271 378.119 164.475 378.119 164.701C378.119 164.861 378.156 165.008 378.23 165.141C378.305 165.27 378.418 165.391 378.57 165.504C378.723 165.613 378.914 165.717 379.145 165.814C379.375 165.912 379.646 166.006 379.959 166.096C380.432 166.236 380.844 166.393 381.195 166.564C381.547 166.732 381.84 166.924 382.074 167.139C382.309 167.354 382.484 167.598 382.602 167.871C382.719 168.141 382.777 168.447 382.777 168.791C382.777 169.15 382.705 169.475 382.561 169.764C382.416 170.049 382.209 170.293 381.939 170.496C381.674 170.695 381.354 170.85 380.979 170.959C380.607 171.064 380.193 171.117 379.736 171.117C379.326 171.117 378.922 171.062 378.523 170.953C378.129 170.844 377.77 170.678 377.445 170.455C377.121 170.229 376.863 169.947 376.672 169.611C376.48 169.271 376.385 168.875 376.385 168.422H377.855C377.855 168.699 377.902 168.936 377.996 169.131C378.094 169.326 378.229 169.486 378.4 169.611C378.572 169.732 378.771 169.822 378.998 169.881C379.229 169.939 379.475 169.969 379.736 169.969C380.08 169.969 380.367 169.92 380.598 169.822C380.832 169.725 381.008 169.588 381.125 169.412C381.242 169.236 381.301 169.033 381.301 168.803Z" fill="black"/>
<path d="M244.852 229.803C244.852 229.627 244.824 229.471 244.77 229.334C244.719 229.197 244.627 229.072 244.494 228.959C244.361 228.846 244.174 228.736 243.932 228.631C243.693 228.521 243.389 228.41 243.018 228.297C242.611 228.172 242.236 228.033 241.893 227.881C241.553 227.725 241.256 227.545 241.002 227.342C240.748 227.135 240.551 226.898 240.41 226.633C240.27 226.363 240.199 226.053 240.199 225.701C240.199 225.354 240.271 225.037 240.416 224.752C240.564 224.467 240.773 224.221 241.043 224.014C241.316 223.803 241.639 223.641 242.01 223.527C242.381 223.41 242.791 223.352 243.24 223.352C243.873 223.352 244.418 223.469 244.875 223.703C245.336 223.938 245.689 224.252 245.936 224.646C246.186 225.041 246.311 225.477 246.311 225.953H244.852C244.852 225.672 244.791 225.424 244.67 225.209C244.553 224.99 244.373 224.818 244.131 224.693C243.893 224.568 243.59 224.506 243.223 224.506C242.875 224.506 242.586 224.559 242.355 224.664C242.125 224.77 241.953 224.912 241.84 225.092C241.727 225.271 241.67 225.475 241.67 225.701C241.67 225.861 241.707 226.008 241.781 226.141C241.855 226.27 241.969 226.391 242.121 226.504C242.273 226.613 242.465 226.717 242.695 226.814C242.926 226.912 243.197 227.006 243.51 227.096C243.982 227.236 244.395 227.393 244.746 227.564C245.098 227.732 245.391 227.924 245.625 228.139C245.859 228.354 246.035 228.598 246.152 228.871C246.27 229.141 246.328 229.447 246.328 229.791C246.328 230.15 246.256 230.475 246.111 230.764C245.967 231.049 245.76 231.293 245.49 231.496C245.225 231.695 244.904 231.85 244.529 231.959C244.158 232.064 243.744 232.117 243.287 232.117C242.877 232.117 242.473 232.062 242.074 231.953C241.68 231.844 241.32 231.678 240.996 231.455C240.672 231.229 240.414 230.947 240.223 230.611C240.031 230.271 239.936 229.875 239.936 229.422H241.406C241.406 229.699 241.453 229.936 241.547 230.131C241.645 230.326 241.779 230.486 241.951 230.611C242.123 230.732 242.322 230.822 242.549 230.881C242.779 230.939 243.025 230.969 243.287 230.969C243.631 230.969 243.918 230.92 244.148 230.822C244.383 230.725 244.559 230.588 244.676 230.412C244.793 230.236 244.852 230.033 244.852 229.803ZM252.668 229.223H254.133C254.086 229.781 253.93 230.279 253.664 230.717C253.398 231.15 253.025 231.492 252.545 231.742C252.064 231.992 251.48 232.117 250.793 232.117C250.266 232.117 249.791 232.023 249.369 231.836C248.947 231.645 248.586 231.375 248.285 231.027C247.984 230.676 247.754 230.252 247.594 229.756C247.438 229.26 247.359 228.705 247.359 228.092V227.383C247.359 226.77 247.439 226.215 247.6 225.719C247.764 225.223 247.998 224.799 248.303 224.447C248.607 224.092 248.973 223.82 249.398 223.633C249.828 223.445 250.311 223.352 250.846 223.352C251.525 223.352 252.1 223.477 252.568 223.727C253.037 223.977 253.4 224.322 253.658 224.764C253.92 225.205 254.08 225.711 254.139 226.281H252.674C252.635 225.914 252.549 225.6 252.416 225.338C252.287 225.076 252.096 224.877 251.842 224.74C251.588 224.6 251.256 224.529 250.846 224.529C250.51 224.529 250.217 224.592 249.967 224.717C249.717 224.842 249.508 225.025 249.34 225.268C249.172 225.51 249.045 225.809 248.959 226.164C248.877 226.516 248.836 226.918 248.836 227.371V228.092C248.836 228.521 248.873 228.912 248.947 229.264C249.025 229.611 249.143 229.91 249.299 230.16C249.459 230.41 249.662 230.604 249.908 230.74C250.154 230.877 250.449 230.945 250.793 230.945C251.211 230.945 251.549 230.879 251.807 230.746C252.068 230.613 252.266 230.42 252.398 230.166C252.535 229.908 252.625 229.594 252.668 229.223ZM258.791 224.605L256.242 232H254.701L257.912 223.469H258.896L258.791 224.605ZM260.924 232L258.369 224.605L258.258 223.469H259.248L262.471 232H260.924ZM260.801 228.836V230.002H256.16V228.836H260.801ZM270.193 223.469V232H268.723L264.896 225.889V232H263.426V223.469H264.896L268.734 229.592V223.469H270.193ZM278.713 223.469V232H277.242L273.416 225.889V232H271.945V223.469H273.416L277.254 229.592V223.469H278.713ZM286.049 230.834V232H281.52V230.834H286.049ZM281.936 223.469V232H280.465V223.469H281.936ZM285.457 227.031V228.18H281.52V227.031H285.457ZM286.02 223.469V224.641H281.52V223.469H286.02ZM287.25 223.469H290.268C290.916 223.469 291.469 223.566 291.926 223.762C292.383 223.957 292.732 224.246 292.975 224.629C293.221 225.008 293.344 225.477 293.344 226.035C293.344 226.461 293.266 226.836 293.109 227.16C292.953 227.484 292.732 227.758 292.447 227.98C292.162 228.199 291.822 228.369 291.428 228.49L290.982 228.707H288.27L288.258 227.541H290.291C290.643 227.541 290.936 227.479 291.17 227.354C291.404 227.229 291.58 227.059 291.697 226.844C291.818 226.625 291.879 226.379 291.879 226.105C291.879 225.809 291.82 225.551 291.703 225.332C291.59 225.109 291.414 224.939 291.176 224.822C290.938 224.701 290.635 224.641 290.268 224.641H288.721V232H287.25V223.469ZM292.119 232L290.115 228.168L291.656 228.162L293.689 231.924V232H292.119Z" fill="black"/>
<path d="M1083.18 414.641V417.898C1083.05 418.059 1082.87 418.234 1082.61 418.426C1082.35 418.613 1082.02 418.775 1081.59 418.912C1081.17 419.049 1080.65 419.117 1080.02 419.117C1079.48 419.117 1078.99 419.027 1078.55 418.848C1078.1 418.664 1077.72 418.396 1077.39 418.045C1077.07 417.693 1076.82 417.266 1076.65 416.762C1076.47 416.254 1076.38 415.676 1076.38 415.027V414.436C1076.38 413.791 1076.46 413.217 1076.62 412.713C1076.79 412.205 1077.02 411.775 1077.33 411.424C1077.63 411.072 1078 410.807 1078.43 410.627C1078.86 410.443 1079.35 410.352 1079.9 410.352C1080.6 410.352 1081.18 410.469 1081.63 410.703C1082.1 410.934 1082.45 411.254 1082.7 411.664C1082.95 412.074 1083.11 412.543 1083.18 413.07H1081.73C1081.69 412.773 1081.6 412.508 1081.46 412.273C1081.33 412.039 1081.13 411.855 1080.88 411.723C1080.64 411.586 1080.32 411.518 1079.92 411.518C1079.58 411.518 1079.29 411.582 1079.03 411.711C1078.77 411.84 1078.55 412.029 1078.38 412.279C1078.21 412.529 1078.09 412.834 1078 413.193C1077.92 413.553 1077.87 413.963 1077.87 414.424V415.027C1077.87 415.496 1077.92 415.912 1078.02 416.275C1078.12 416.639 1078.27 416.945 1078.45 417.195C1078.64 417.445 1078.88 417.635 1079.15 417.764C1079.42 417.889 1079.73 417.951 1080.08 417.951C1080.41 417.951 1080.69 417.924 1080.9 417.869C1081.12 417.811 1081.29 417.742 1081.41 417.664C1081.54 417.582 1081.64 417.504 1081.71 417.43V415.736H1079.94V414.641H1083.18ZM1088.13 411.605L1085.58 419H1084.04L1087.25 410.469H1088.23L1088.13 411.605ZM1090.26 419L1087.71 411.605L1087.59 410.469H1088.58L1091.81 419H1090.26ZM1090.14 415.836V417.002H1085.5V415.836H1090.14ZM1095.53 410.469V419H1094.07V410.469H1095.53ZM1098.21 410.469V411.641H1091.42V410.469H1098.21ZM1104.92 417.834V419H1100.39V417.834H1104.92ZM1100.81 410.469V419H1099.34V410.469H1100.81ZM1104.33 414.031V415.18H1100.39V414.031H1104.33ZM1104.89 410.469V411.641H1100.39V410.469H1104.89ZM1080.21 430.803C1080.21 430.627 1080.18 430.471 1080.13 430.334C1080.08 430.197 1079.99 430.072 1079.85 429.959C1079.72 429.846 1079.53 429.736 1079.29 429.631C1079.05 429.521 1078.75 429.41 1078.38 429.297C1077.97 429.172 1077.6 429.033 1077.25 428.881C1076.91 428.725 1076.62 428.545 1076.36 428.342C1076.11 428.135 1075.91 427.898 1075.77 427.633C1075.63 427.363 1075.56 427.053 1075.56 426.701C1075.56 426.354 1075.63 426.037 1075.78 425.752C1075.92 425.467 1076.13 425.221 1076.4 425.014C1076.68 424.803 1077 424.641 1077.37 424.527C1077.74 424.41 1078.15 424.352 1078.6 424.352C1079.23 424.352 1079.78 424.469 1080.23 424.703C1080.7 424.938 1081.05 425.252 1081.29 425.646C1081.54 426.041 1081.67 426.477 1081.67 426.953H1080.21C1080.21 426.672 1080.15 426.424 1080.03 426.209C1079.91 425.99 1079.73 425.818 1079.49 425.693C1079.25 425.568 1078.95 425.506 1078.58 425.506C1078.23 425.506 1077.95 425.559 1077.71 425.664C1077.48 425.77 1077.31 425.912 1077.2 426.092C1077.09 426.271 1077.03 426.475 1077.03 426.701C1077.03 426.861 1077.07 427.008 1077.14 427.141C1077.21 427.27 1077.33 427.391 1077.48 427.504C1077.63 427.613 1077.82 427.717 1078.05 427.814C1078.29 427.912 1078.56 428.006 1078.87 428.096C1079.34 428.236 1079.75 428.393 1080.11 428.564C1080.46 428.732 1080.75 428.924 1080.98 429.139C1081.22 429.354 1081.39 429.598 1081.51 429.871C1081.63 430.141 1081.69 430.447 1081.69 430.791C1081.69 431.15 1081.62 431.475 1081.47 431.764C1081.33 432.049 1081.12 432.293 1080.85 432.496C1080.58 432.695 1080.26 432.85 1079.89 432.959C1079.52 433.064 1079.1 433.117 1078.65 433.117C1078.24 433.117 1077.83 433.062 1077.43 432.953C1077.04 432.844 1076.68 432.678 1076.36 432.455C1076.03 432.229 1075.77 431.947 1075.58 431.611C1075.39 431.271 1075.29 430.875 1075.29 430.422H1076.77C1076.77 430.699 1076.81 430.936 1076.91 431.131C1077 431.326 1077.14 431.486 1077.31 431.611C1077.48 431.732 1077.68 431.822 1077.91 431.881C1078.14 431.939 1078.38 431.969 1078.65 431.969C1078.99 431.969 1079.28 431.92 1079.51 431.822C1079.74 431.725 1079.92 431.588 1080.04 431.412C1080.15 431.236 1080.21 431.033 1080.21 430.803ZM1086.31 425.605L1083.76 433H1082.22L1085.43 424.469H1086.42L1086.31 425.605ZM1088.44 433L1085.89 425.605L1085.78 424.469H1086.77L1089.99 433H1088.44ZM1088.32 429.836V431.002H1083.68V429.836H1088.32ZM1092.52 424.469V433H1091.04V424.469H1092.52ZM1091.07 423.9L1092.21 422.137H1093.8L1092.21 423.9H1091.07ZM1096.82 433H1095L1095.01 431.834H1096.82C1097.35 431.834 1097.79 431.719 1098.15 431.488C1098.51 431.258 1098.78 430.928 1098.96 430.498C1099.14 430.068 1099.23 429.557 1099.23 428.963V428.5C1099.23 428.039 1099.18 427.631 1099.07 427.275C1098.97 426.92 1098.82 426.621 1098.62 426.379C1098.42 426.137 1098.17 425.953 1097.88 425.828C1097.59 425.703 1097.25 425.641 1096.88 425.641H1094.96V424.469H1096.88C1097.44 424.469 1097.96 424.564 1098.43 424.756C1098.9 424.943 1099.3 425.215 1099.64 425.57C1099.98 425.926 1100.25 426.352 1100.43 426.848C1100.62 427.344 1100.71 427.898 1100.71 428.512V428.963C1100.71 429.576 1100.62 430.131 1100.43 430.627C1100.25 431.123 1099.98 431.549 1099.64 431.904C1099.3 432.256 1098.89 432.527 1098.41 432.719C1097.94 432.906 1097.41 433 1096.82 433ZM1095.81 424.469V433H1094.34V424.469H1095.81ZM1105.38 425.605L1102.83 433H1101.29L1104.5 424.469H1105.48L1105.38 425.605ZM1107.51 433L1104.96 425.605L1104.84 424.469H1105.83L1109.06 433H1107.51ZM1107.39 429.836V431.002H1102.75V429.836H1107.39Z" fill="black"/>
<path d="M101.066 68.1445H98.8926L98.8809 67.0723H100.779C101.1 67.0723 101.371 67.0254 101.594 66.9316C101.82 66.834 101.992 66.6953 102.109 66.5156C102.227 66.332 102.285 66.1113 102.285 65.8535C102.285 65.5684 102.23 65.3359 102.121 65.1562C102.012 64.9766 101.844 64.8457 101.617 64.7637C101.395 64.6816 101.109 64.6406 100.762 64.6406H99.3379V72H97.8672V63.4688H100.762C101.23 63.4688 101.648 63.5137 102.016 63.6035C102.387 63.6934 102.701 63.834 102.959 64.0254C103.221 64.2129 103.418 64.4512 103.551 64.7402C103.688 65.0293 103.756 65.373 103.756 65.7715C103.756 66.123 103.672 66.4453 103.504 66.7383C103.336 67.0273 103.088 67.2637 102.76 67.4473C102.432 67.6309 102.023 67.7402 101.535 67.7754L101.066 68.1445ZM101.002 72H98.4297L99.0918 70.834H101.002C101.334 70.834 101.611 70.7793 101.834 70.6699C102.057 70.5566 102.223 70.4023 102.332 70.207C102.445 70.0078 102.502 69.7754 102.502 69.5098C102.502 69.2324 102.453 68.9922 102.355 68.7891C102.258 68.582 102.104 68.4238 101.893 68.3145C101.682 68.2012 101.406 68.1445 101.066 68.1445H99.4141L99.4258 67.0723H101.576L101.91 67.4766C102.379 67.4922 102.764 67.5957 103.064 67.7871C103.369 67.9785 103.596 68.2266 103.744 68.5312C103.893 68.8359 103.967 69.1641 103.967 69.5156C103.967 70.0586 103.848 70.5137 103.609 70.8809C103.375 71.248 103.037 71.5273 102.596 71.7188C102.154 71.9062 101.623 72 101.002 72ZM108.771 64.6055L106.223 72H104.682L107.893 63.4688H108.877L108.771 64.6055ZM110.904 72L108.35 64.6055L108.238 63.4688H109.229L112.451 72H110.904ZM110.781 68.8359V70.002H106.141V68.8359H110.781ZM118.75 70.834V72H114.467V70.834H118.75ZM114.877 63.4688V72H113.406V63.4688H114.877ZM123.326 64.6055L120.777 72H119.236L122.447 63.4688H123.432L123.326 64.6055ZM125.459 72L122.904 64.6055L122.793 63.4688H123.783L127.006 72H125.459ZM125.336 68.8359V70.002H120.695V68.8359H125.336ZM134.729 63.4688V72H133.258L129.432 65.8887V72H127.961V63.4688H129.432L133.27 69.5918V63.4688H134.729ZM141.52 69.2227H142.984C142.938 69.7812 142.781 70.2793 142.516 70.7168C142.25 71.1504 141.877 71.4922 141.396 71.7422C140.916 71.9922 140.332 72.1172 139.645 72.1172C139.117 72.1172 138.643 72.0234 138.221 71.8359C137.799 71.6445 137.438 71.375 137.137 71.0273C136.836 70.6758 136.605 70.252 136.445 69.7559C136.289 69.2598 136.211 68.7051 136.211 68.0918V67.3828C136.211 66.7695 136.291 66.2148 136.451 65.7188C136.615 65.2227 136.85 64.7988 137.154 64.4473C137.459 64.0918 137.824 63.8203 138.25 63.6328C138.68 63.4453 139.162 63.3516 139.697 63.3516C140.377 63.3516 140.951 63.4766 141.42 63.7266C141.889 63.9766 142.252 64.3223 142.51 64.7637C142.771 65.2051 142.932 65.7109 142.99 66.2812H141.525C141.486 65.9141 141.4 65.5996 141.268 65.3379C141.139 65.0762 140.947 64.877 140.693 64.7402C140.439 64.5996 140.107 64.5293 139.697 64.5293C139.361 64.5293 139.068 64.5918 138.818 64.7168C138.568 64.8418 138.359 65.0254 138.191 65.2676C138.023 65.5098 137.896 65.8086 137.811 66.1641C137.729 66.5156 137.688 66.918 137.688 67.3711V68.0918C137.688 68.5215 137.725 68.9121 137.799 69.2637C137.877 69.6113 137.994 69.9102 138.15 70.1602C138.311 70.4102 138.514 70.6035 138.76 70.7402C139.006 70.877 139.301 70.9453 139.645 70.9453C140.062 70.9453 140.4 70.8789 140.658 70.7461C140.92 70.6133 141.117 70.4199 141.25 70.166C141.387 69.9082 141.477 69.5938 141.52 69.2227ZM139.117 72.0117H140.166L140.096 72.3398C140.318 72.3789 140.521 72.4727 140.705 72.6211C140.893 72.7734 140.986 73.0176 140.986 73.3535C140.986 73.5527 140.945 73.7324 140.863 73.8926C140.781 74.0527 140.658 74.1895 140.494 74.3027C140.334 74.4199 140.133 74.5098 139.891 74.5723C139.652 74.6348 139.375 74.666 139.059 74.666L139.018 73.8691C139.17 73.8691 139.307 73.8496 139.428 73.8105C139.549 73.7754 139.645 73.7188 139.715 73.6406C139.789 73.5625 139.826 73.4609 139.826 73.3359C139.826 73.2148 139.795 73.1211 139.732 73.0547C139.67 72.9883 139.572 72.9375 139.439 72.9023C139.311 72.8672 139.143 72.8418 138.936 72.8262L139.117 72.0117ZM147.643 64.6055L145.094 72H143.553L146.764 63.4688H147.748L147.643 64.6055ZM149.775 72L147.221 64.6055L147.109 63.4688H148.1L151.322 72H149.775ZM149.652 68.8359V70.002H145.012V68.8359H149.652Z" fill="black"/>
<rect x="128.996" y="279" width="5" height="163" fill="#828282"/>
<rect x="130.996" y="442" width="5" height="848" transform="rotate(-90 130.996 442)" fill="#828282"/>
<path d="M1018 443V439L1137 439.5L1135 443H1018Z" fill="#828282"/>
<rect x="100" y="5" width="5" height="1094" transform="rotate(-90 100 5)" fill="#828282"/>
<rect x="165.684" y="232.617" width="5" height="58.9501" transform="rotate(38.1051 165.684 232.617)" fill="#828282"/>
<rect x="221.996" y="244" width="5" height="93" transform="rotate(-90 221.996 244)" fill="#828282"/>
<rect x="978.996" y="400" width="5" height="131" transform="rotate(-90 978.996 400)" fill="#828282"/>
<path d="M1135.53 441.676L1128.22 441.634L1194 334L1195 348.999L1135.53 441.676Z" fill="#828282"/>
<rect x="973.996" y="395" width="5" height="47" fill="#828282"/>
<path d="M1189 0L1194 0V342H1189V0Z" fill="#828282"/>
<rect x="191.742" y="228.781" width="5" height="33.6613" transform="rotate(-63.6523 191.742 228.781)" fill="#828282"/>
<rect width="5" height="50.1136" transform="matrix(-0.443817 -0.896117 -0.896117 0.443817 360.121 221.48)" fill="#828282"/>
<rect x="81.4961" y="271.047" width="42.5568" height="164.894" transform="rotate(16.3783 81.4961 271.047)" fill="#FF4B4B"/>
<path d="M93.1758 247.641V250.898C93.0547 251.059 92.8652 251.234 92.6074 251.426C92.3535 251.613 92.0156 251.775 91.5938 251.912C91.1719 252.049 90.6465 252.117 90.0176 252.117C89.4824 252.117 88.9922 252.027 88.5469 251.848C88.1016 251.664 87.7168 251.396 87.3926 251.045C87.0723 250.693 86.8242 250.266 86.6484 249.762C86.4727 249.254 86.3848 248.676 86.3848 248.027V247.436C86.3848 246.791 86.4648 246.217 86.625 245.713C86.7891 245.205 87.0234 244.775 87.3281 244.424C87.6328 244.072 88 243.807 88.4297 243.627C88.8633 243.443 89.3535 243.352 89.9004 243.352C90.5996 243.352 91.1777 243.469 91.6348 243.703C92.0957 243.934 92.4512 244.254 92.7012 244.664C92.9512 245.074 93.1094 245.543 93.1758 246.07H91.7344C91.6875 245.773 91.5957 245.508 91.459 245.273C91.3262 245.039 91.1348 244.855 90.8848 244.723C90.6387 244.586 90.3184 244.518 89.9238 244.518C89.584 244.518 89.2852 244.582 89.0273 244.711C88.7695 244.84 88.5547 245.029 88.3828 245.279C88.2148 245.529 88.0879 245.834 88.002 246.193C87.916 246.553 87.873 246.963 87.873 247.424V248.027C87.873 248.496 87.9219 248.912 88.0195 249.275C88.1211 249.639 88.2656 249.945 88.4531 250.195C88.6445 250.445 88.877 250.635 89.1504 250.764C89.4238 250.889 89.7324 250.951 90.0762 250.951C90.4121 250.951 90.6875 250.924 90.9023 250.869C91.1172 250.811 91.2871 250.742 91.4121 250.664C91.541 250.582 91.6406 250.504 91.7109 250.43V248.736H89.9355V247.641H93.1758ZM98.127 244.605L95.5781 252H94.0371L97.248 243.469H98.2324L98.127 244.605ZM100.26 252L97.7051 244.605L97.5938 243.469H98.584L101.807 252H100.26ZM100.137 248.836V250.002H95.4961V248.836H100.137ZM105.533 243.469V252H104.074V243.469H105.533ZM108.211 243.469V244.641H101.42V243.469H108.211ZM114.92 250.834V252H110.391V250.834H114.92ZM110.807 243.469V252H109.336V243.469H110.807ZM114.328 247.031V248.18H110.391V247.031H114.328ZM114.891 243.469V244.641H110.391V243.469H114.891ZM81.6387 264.834V266H77.1094V264.834H81.6387ZM77.5254 257.469V266H76.0547V257.469H77.5254ZM81.0469 261.031V262.18H77.1094V261.031H81.0469ZM81.6094 257.469V258.641H77.1094V257.469H81.6094ZM89.6074 257.469V266H88.1367L84.3105 259.889V266H82.8398V257.469H84.3105L88.1484 263.592V257.469H89.6074ZM94.6934 257.469V266H93.2344V257.469H94.6934ZM97.3711 257.469V258.641H90.5801V257.469H97.3711ZM98.4961 257.469H101.514C102.162 257.469 102.715 257.566 103.172 257.762C103.629 257.957 103.979 258.246 104.221 258.629C104.467 259.008 104.59 259.477 104.59 260.035C104.59 260.461 104.512 260.836 104.355 261.16C104.199 261.484 103.979 261.758 103.693 261.98C103.408 262.199 103.068 262.369 102.674 262.49L102.229 262.707H99.5156L99.5039 261.541H101.537C101.889 261.541 102.182 261.479 102.416 261.354C102.65 261.229 102.826 261.059 102.943 260.844C103.064 260.625 103.125 260.379 103.125 260.105C103.125 259.809 103.066 259.551 102.949 259.332C102.836 259.109 102.66 258.939 102.422 258.822C102.184 258.701 101.881 258.641 101.514 258.641H99.9668V266H98.4961V257.469ZM103.365 266L101.361 262.168L102.902 262.162L104.936 265.924V266H103.365ZM109.377 258.605L106.828 266H105.287L108.498 257.469H109.482L109.377 258.605ZM111.51 266L108.955 258.605L108.844 257.469H109.834L113.057 266H111.51ZM111.387 262.836V264.002H106.746V262.836H111.387ZM116.49 266H114.668L114.68 264.834H116.49C117.018 264.834 117.459 264.719 117.814 264.488C118.174 264.258 118.443 263.928 118.623 263.498C118.807 263.068 118.898 262.557 118.898 261.963V261.5C118.898 261.039 118.846 260.631 118.74 260.275C118.639 259.92 118.486 259.621 118.283 259.379C118.084 259.137 117.838 258.953 117.545 258.828C117.256 258.703 116.922 258.641 116.543 258.641H114.633V257.469H116.543C117.109 257.469 117.627 257.564 118.096 257.756C118.564 257.943 118.969 258.215 119.309 258.57C119.652 258.926 119.916 259.352 120.1 259.848C120.283 260.344 120.375 260.898 120.375 261.512V261.963C120.375 262.576 120.283 263.131 120.1 263.627C119.916 264.123 119.652 264.549 119.309 264.904C118.965 265.256 118.555 265.527 118.078 265.719C117.605 265.906 117.076 266 116.49 266ZM115.482 257.469V266H114.012V257.469H115.482ZM125.045 258.605L122.496 266H120.955L124.166 257.469H125.15L125.045 258.605ZM127.178 266L124.623 258.605L124.512 257.469H125.502L128.725 266H127.178ZM127.055 262.836V264.002H122.414V262.836H127.055Z" fill="black"/>
</svg>
