<svg width="598" height="699" viewBox="0 0 598 699" fill="none" xmlns="http://www.w3.org/2000/svg">
<path fill-rule="evenodd" clip-rule="evenodd" d="M197.035 399.715L402.952 401.281V568.505L197.035 566.939V399.715Z" fill="#F9DCA4"/>
<path fill-rule="evenodd" clip-rule="evenodd" d="M465.206 661.525C412.865 685.902 355.874 698.685 298.135 698.998C240.396 699.31 183.271 687.146 130.668 663.338V525.758H465.193L465.206 661.525Z" fill="#E6E6E6"/>
<path fill-rule="evenodd" clip-rule="evenodd" d="M328.401 697.707C317.717 698.562 306.917 698.993 296 699.002C287.758 699.002 279.581 698.756 271.469 698.264L284.802 581.914H316L328.401 697.707Z" fill="#E9573E"/>
<path fill-rule="evenodd" clip-rule="evenodd" d="M228.131 692.944C184.028 684.73 141.437 669.836 101.826 648.775C63.7803 627.604 29.4293 600.388 0.117188 568.193L16.7386 528.063L196.998 447.648C196.998 515.118 219.147 622.16 228.131 692.944Z" fill="#677079"/>
<path opacity="0.11" fill-rule="evenodd" clip-rule="evenodd" d="M402.992 400.738V442.563C341.736 514.11 224.701 503.987 198.461 398.395L402.992 400.738Z" fill="black"/>
<path fill-rule="evenodd" clip-rule="evenodd" d="M298.965 8.15234C574.448 8.15234 467.082 464.672 298.965 464.672C140.169 464.672 23.4823 8.15234 298.965 8.15234Z" fill="#FFE8BE"/>
<path fill-rule="evenodd" clip-rule="evenodd" d="M133.734 210.275C93.9925 227.608 127.779 309.77 152.789 309.408C142.415 277.26 136.016 243.977 133.734 210.275Z" fill="#F9DCA4"/>
<path fill-rule="evenodd" clip-rule="evenodd" d="M467.394 210.262C507.135 227.595 473.348 309.77 448.352 309.395C458.717 277.25 465.112 243.959 467.394 210.262Z" fill="#F9DCA4"/>
<path fill-rule="evenodd" clip-rule="evenodd" d="M179.898 84.4748C136.739 129.239 151.924 253.149 151.924 253.149L138.331 246.741C53.4896 -81.9852 547.834 -81.9982 462.514 246.741L448.921 253.149C448.921 253.149 464.119 129.239 420.96 84.4748C367.64 136.19 232.921 135.918 179.898 84.4748Z" fill="#464449"/>
<path fill-rule="evenodd" clip-rule="evenodd" d="M371.949 691.793C459.423 674.899 538.741 629.253 597.296 562.11L583.186 528.051L402.94 447.637C402.94 515.106 380.933 621.009 371.949 691.793Z" fill="#677079"/>
<path fill-rule="evenodd" clip-rule="evenodd" d="M402.954 442.434L300.352 526.123L385.439 602.667C385.439 602.667 408.119 477.049 402.954 442.434Z" fill="white"/>
<path fill-rule="evenodd" clip-rule="evenodd" d="M197.012 442.434L300.43 526.123L214.411 602.667C214.411 602.667 191.809 477.049 197.012 442.434Z" fill="white"/>
<path fill-rule="evenodd" clip-rule="evenodd" d="M259.871 562.135L300.48 525.656L341.088 562.135L300.48 598.601L259.871 562.135Z" fill="#E9573E"/>
<path fill-rule="evenodd" clip-rule="evenodd" d="M229.555 693.474C213.025 690.709 196.687 686.904 180.636 682.083C180.133 681.695 179.641 681.294 179.16 680.879L133.399 598.16L192.183 555.959H130.668L143.833 467.273L197.037 433.629C199.341 529.034 219.807 636.296 229.555 693.474Z" fill="#434955"/>
<path fill-rule="evenodd" clip-rule="evenodd" d="M370.371 692.089C377.983 690.821 385.517 689.06 392.986 687.118C401.815 684.827 410.591 682.238 419.316 679.623L421.051 679.067L466.501 597.319L407.717 555.351H469.232L456.067 467.105L402.863 433.629C400.559 528.542 380.106 635.196 370.371 692.089Z" fill="#434955"/>
</svg>
